<?xml version="1.0" encoding="UTF-8"?>
<svg xmlns="http://www.w3.org/2000/svg" xmlns:xlink="http://www.w3.org/1999/xlink" width="118.5pt" height="32.999998pt" viewBox="0 0 118.5 32.999998" version="1.2">
<defs>
<clipPath id="clip1">
  <path d="M 23 0.0703125 L 95 0.0703125 L 95 28 L 23 28 Z M 23 0.0703125 "/>
</clipPath>
<clipPath id="clip2">
  <path d="M 0 4 L 25.5 4 L 25.5 29.445312 L 0 29.445312 Z M 0 4 "/>
</clipPath>
<clipPath id="clip3">
  <path d="M 22 3.945312 L 25.5 3.945312 L 25.5 7 L 22 7 Z M 22 3.945312 "/>
</clipPath>
<clipPath id="clip4">
  <path d="M 24 7 L 25.5 7 L 25.5 9 L 24 9 Z M 24 7 "/>
</clipPath>
<clipPath id="clip5">
  <path d="M 3 28 L 6 28 L 6 29.445312 L 3 29.445312 Z M 3 28 "/>
</clipPath>
<clipPath id="clip6">
  <path d="M 57 21 L 97 21 L 97 32.929688 L 57 32.929688 Z M 57 21 "/>
</clipPath>
<clipPath id="clip7">
  <path d="M 93.25 9 L 95 9 L 95 11 L 93.25 11 Z M 93.25 9 "/>
</clipPath>
<clipPath id="clip8">
  <path d="M 93.25 4 L 118.003906 4 L 118.003906 29.445312 L 93.25 29.445312 Z M 93.25 4 "/>
</clipPath>
<clipPath id="clip9">
  <path d="M 115 3.945312 L 118.003906 3.945312 L 118.003906 7 L 115 7 Z M 115 3.945312 "/>
</clipPath>
<clipPath id="clip10">
  <path d="M 117 7 L 118.003906 7 L 118.003906 9 L 117 9 Z M 117 7 "/>
</clipPath>
<clipPath id="clip11">
  <path d="M 93.25 19 L 96 19 L 96 23 L 93.25 23 Z M 93.25 19 "/>
</clipPath>
<clipPath id="clip12">
  <path d="M 97 28 L 99 28 L 99 29.445312 L 97 29.445312 Z M 97 28 "/>
</clipPath>
</defs>
<g id="surface1">
<g clip-path="url(#clip1)" clip-rule="nonzero">
<path style="fill:none;stroke-width:1.2;stroke-linecap:butt;stroke-linejoin:miter;stroke:rgb(100%,8.628845%,8.628845%);stroke-opacity:1;stroke-miterlimit:4;" d="M 27.14961 32.029425 L 27.6263 31.998239 L 27.728766 31.998239 L 27.978249 31.967054 L 28.428209 31.967054 L 28.686602 31.998239 L 29.100922 32.029425 L 29.960747 31.998239 L 30.187954 31.967054 L 30.415162 31.998239 L 30.891852 32.029425 L 31.372998 31.935868 L 31.564565 31.967054 L 31.97443 31.873498 L 32.264008 31.842312 L 32.46003 31.806672 L 32.718423 31.713116 L 33.070372 31.615105 L 33.328765 31.485908 L 33.547063 31.392352 L 33.711899 31.298796 L 33.867826 31.174055 L 34.095034 31.040403 L 34.250961 30.884476 L 34.446983 30.78201 L 34.700921 30.626084 L 34.830117 30.461247 L 35.05287 30.274135 L 35.208797 30.109298 L 35.404819 29.757349 L 35.694397 29.374214 L 36.202273 28.349553 L 36.264644 28.1268 L 36.335924 27.939688 L 36.398295 27.71248 L 36.460666 27.525368 L 36.554222 27.070953 L 36.585407 26.852655 L 36.687873 26.429426 L 36.781429 25.952735 L 36.8438 25.467135 L 36.874986 25.248837 L 36.874986 24.830062 L 36.906171 24.544939 L 36.8438 24.228631 L 36.874986 23.805401 L 36.750244 23.391081 L 36.687873 22.976761 L 36.585407 22.780739 L 36.523037 22.459975 L 36.36711 22.108026 L 36.233458 21.889729 L 36.046346 21.568965 L 35.850324 21.372943 L 35.663212 21.15019 L 35.275622 20.896253 L 34.986044 20.767056 L 34.634095 20.579944 L 34.313331 20.446292 L 34.313331 20.25918 L 34.60291 20.125529 L 34.986044 19.969602 L 35.373633 19.742394 L 35.591931 19.617653 L 35.756768 19.484001 L 35.912695 19.296889 L 36.077531 19.172148 L 36.491851 18.748918 L 36.750244 18.365784 L 36.968542 18.04502 L 37.195749 17.697526 L 37.329401 17.407948 L 37.422957 17.220836 L 37.485328 16.993628 L 37.547698 16.797606 L 37.578884 16.579308 L 37.610069 16.476842 L 37.68135 16.258545 L 37.641254 16.062522 L 37.774906 15.648203 L 37.806091 15.420995 L 37.868462 15.006675 L 37.868462 14.810653 L 37.930833 14.592356 L 37.962018 14.396333 L 37.962018 14.178036 L 38.002113 13.986469 L 38.033299 13.509778 L 37.962018 13.117734 L 37.899647 12.868251 L 37.899647 12.641043 L 37.868462 12.38265 L 37.68135 11.937145 L 37.547698 11.554011 L 37.454142 11.389174 L 37.329401 11.202062 L 37.039822 10.943669 L 36.616593 10.493709 L 36.264644 10.213041 L 35.975065 10.079389 L 35.663212 9.923462 L 35.275622 9.820996 L 34.798932 9.696255 L 34.478168 9.665069 L 34.126219 9.602699 L 33.163928 9.602699 L 32.718423 9.571513 L 31.435368 9.602699 L 29.867191 9.540328 L 29.194478 9.540328 L 28.842529 9.571513 L 28.646507 9.540328 L 27.853508 9.540328 L 27.408003 9.571513 L 27.118424 9.820996 L 27.024868 9.985833 L 26.953587 10.275411 L 26.922402 10.752102 L 26.891217 10.974854 L 26.891217 11.233247 L 26.797661 11.647567 L 26.601638 12.413836 L 26.508082 12.837066 L 26.414526 13.313756 L 26.352156 14.333963 L 26.218504 14.779468 L 26.156133 15.265068 L 26.124948 15.45218 L 26.062577 15.648203 L 26.062577 15.87541 L 26.031392 16.062522 L 26.000206 16.352101 L 25.89774 16.610494 L 25.866555 16.797606 L 25.804184 17.024813 L 25.772999 17.407948 L 25.741814 17.697526 L 25.639347 17.982649 L 25.576977 18.209857 L 25.545791 18.428154 L 25.545791 18.686547 L 25.483421 19.132052 L 25.358679 19.586468 L 25.327494 19.844861 L 25.193842 20.25918 L 25.131472 20.415107 L 25.100286 20.865067 L 24.966635 21.310572 L 24.904264 21.631336 L 24.873079 21.756077 L 24.873079 21.9521 L 24.779523 22.335234 L 24.748337 22.562442 L 24.685967 22.976761 L 24.587955 23.391081 L 24.587955 23.618289 L 24.55677 23.805401 L 24.494399 24.063794 L 24.396388 24.322187 L 24.298377 24.767692 L 24.334017 25.084 L 24.204821 25.404764 L 24.14245 25.92155 L 24.08008 26.39824 L 24.048894 26.594263 L 23.946428 26.852655 L 23.915243 27.102138 L 23.852872 27.329346 L 23.821687 27.556554 L 23.759316 27.743666 L 23.728131 28.193626 L 23.66576 28.639131 L 23.532108 29.053451 L 23.500923 29.280658 L 23.438552 29.663793 L 23.376182 30.109298 L 23.304901 30.398876 L 23.211345 30.657269 L 23.211345 31.133959 L 23.148974 31.454723 L 23.117789 31.713116 L 23.344996 31.904683 L 23.625664 31.935868 L 24.111265 31.967054 L 24.365203 31.967054 L 24.55677 31.998239 L 25.866555 31.998239 L 26.383341 31.967054 L 26.632824 31.967054 Z M 30.767111 18.107391 L 30.383977 18.076205 L 29.960747 18.076205 L 29.960747 17.889093 L 30.000842 17.56833 L 30.063213 17.314392 L 30.28151 15.741759 L 30.352791 15.554647 L 30.383977 15.327439 L 30.477533 14.913119 L 30.477533 14.685912 L 30.571089 14.302777 L 30.602274 14.080025 L 30.633459 13.790446 L 30.735926 13.509778 L 30.735926 13.282571 L 30.985408 13.2202 L 31.787318 13.2202 L 32.366474 13.282571 L 32.647142 13.344941 L 32.843165 13.376127 L 33.101558 13.603334 L 33.195114 13.759261 L 33.391136 14.142395 L 33.422321 14.529985 L 33.453507 14.748282 L 33.484692 15.100231 L 33.35995 15.420995 L 33.328765 15.679388 L 33.257484 15.87541 L 33.163928 16.258545 L 33.008001 16.70405 L 32.749608 17.024813 L 32.584772 17.314392 L 32.201637 17.6307 L 31.849688 17.857908 L 31.59575 18.013835 L 31.212616 18.076205 Z M 28.717787 27.904047 L 28.201002 27.872862 L 28.334653 27.454087 L 28.365838 27.204605 L 28.428209 26.946212 L 28.49058 26.491796 L 28.49058 26.273499 L 28.584136 25.787898 L 28.646507 25.569601 L 28.717787 25.115186 L 28.748973 24.865703 L 28.811344 24.669681 L 28.811344 24.446928 L 28.873714 24.228631 L 28.936085 23.74303 L 29.007366 23.618289 L 29.069737 23.359896 L 29.132107 22.780739 L 29.225663 22.491161 L 29.680078 22.491161 L 30.032027 22.531256 L 30.477533 22.531256 L 30.735926 22.593627 L 31.056689 22.655998 L 31.662576 22.883205 L 32.014525 23.203969 L 32.295193 23.970238 L 32.264008 24.384557 L 32.295193 24.928074 L 32.232823 25.50723 L 32.076896 25.92155 L 32.04571 26.179943 L 31.97443 26.39824 L 31.818503 26.750189 L 31.787318 27.008582 L 31.59575 27.298161 L 31.372998 27.485273 L 31.087875 27.71248 L 30.860667 27.806036 L 30.633459 27.806036 L 30.415162 27.904047 L 29.80482 27.904047 L 29.007366 27.806036 Z M 44.493122 32.194261 L 45.13465 32.194261 L 45.61134 32.154166 L 46.346424 32.154166 L 46.987951 32.091795 L 47.179518 32.029425 L 47.469096 31.967054 L 47.852231 31.873498 L 48.039343 31.806672 L 48.556129 31.615105 L 48.720966 31.485908 L 49.1041 31.329982 L 49.353583 31.174055 L 49.643161 31.009218 L 49.901554 30.688454 L 50.186677 30.461247 L 50.378245 30.180578 L 50.507441 29.891 L 50.663368 29.663793 L 50.797019 29.436585 L 50.984132 28.99108 L 51.117783 28.795058 L 51.336081 28.380738 L 51.438547 27.970873 L 51.594473 27.774851 L 51.68803 27.23579 L 51.821681 26.81256 L 51.946422 26.429426 L 52.008793 26.211128 L 52.080074 26.015106 L 52.080074 25.787898 L 52.142445 25.50723 L 52.236001 25.146371 L 52.298371 24.928074 L 52.298371 24.736506 L 52.400838 24.322187 L 52.525579 23.939052 L 52.525579 23.876682 L 52.619135 23.422266 L 52.650321 23.203969 L 52.783972 22.749554 L 52.877528 22.335234 L 52.939899 21.9521 L 52.971084 21.53778 L 53.104736 21.279387 L 53.167106 20.829427 L 53.167106 20.611129 L 53.291848 20.156714 L 53.323033 19.711209 L 53.389859 19.265704 L 53.425499 19.069682 L 53.519055 18.624177 L 53.519055 18.428154 L 53.612611 17.951464 L 53.835364 17.252021 L 53.804179 17.024813 L 53.866549 16.797606 L 53.897735 16.610494 L 53.964561 16.383286 L 53.964561 16.156078 L 54.062572 15.772944 L 54.124942 15.483366 L 54.218498 15.202698 L 54.280869 14.913119 L 54.374425 14.56117 L 54.374425 14.365148 L 54.508077 13.986469 L 54.476891 13.790446 L 54.601633 13.376127 L 54.632818 13.148919 L 54.695189 12.899436 L 54.735284 12.672229 L 54.860026 12.226724 L 54.891211 11.968331 L 54.953582 11.522826 L 55.015952 11.264433 L 55.056048 10.783287 L 55.24316 10.337782 L 55.211975 9.861092 L 54.953582 9.602699 L 54.695189 9.571513 L 54.414521 9.602699 L 54.187313 9.633884 L 53.866549 9.602699 L 53.643797 9.633884 L 53.389859 9.633884 L 53.167106 9.602699 L 52.939899 9.602699 L 52.008793 9.633884 L 51.790496 9.602699 L 51.563288 9.602699 L 50.600997 9.633884 L 50.507441 9.861092 L 50.476256 10.110574 L 50.378245 10.529349 L 50.284689 10.974854 L 50.186677 11.389174 L 50.155492 11.585196 L 50.124307 11.968331 L 50.093121 12.155443 L 49.93274 12.516302 L 49.963925 12.734599 L 49.901554 13.148919 L 49.839183 13.603334 L 49.745627 14.048839 L 49.705532 14.302777 L 49.643161 14.748282 L 49.611976 15.006675 L 49.487234 15.45218 L 49.51842 15.804129 L 49.322398 16.124893 L 49.322398 16.579308 L 49.291212 16.735235 L 49.228841 17.18965 L 49.228841 17.439133 L 49.1041 17.889093 L 49.072915 18.138576 L 48.939263 18.592991 L 48.876892 18.976126 L 48.783336 19.390445 L 48.720966 19.804765 L 48.720966 20.063158 L 48.556129 20.517573 L 48.493758 20.735871 L 48.462573 21.119005 L 48.328921 21.693707 L 48.266551 22.01447 L 48.20418 22.42879 L 48.172994 22.655998 L 48.110624 22.914391 L 48.039343 23.132688 L 48.008158 23.422266 L 47.945787 23.711845 L 47.883416 23.907867 L 47.852231 24.228631 L 47.78986 24.446928 L 47.687394 24.896888 L 47.531467 25.538415 L 47.469096 25.725528 L 47.406726 26.015106 L 47.241889 26.33587 L 47.019136 26.852655 L 46.921125 27.039768 L 46.734013 27.298161 L 46.413249 27.556554 L 45.673711 27.65011 L 45.000998 27.556554 L 44.649049 27.454087 L 44.2971 27.039768 L 44.265915 26.656633 L 44.265915 26.304684 L 44.23473 25.787898 L 44.265915 25.569601 L 44.2971 25.373579 L 44.328286 25.084 L 44.430752 24.322187 L 44.524308 23.907867 L 44.555493 23.453452 L 44.649049 22.811924 L 44.813886 21.662521 L 44.876257 21.279387 L 45.000998 20.865067 L 45.000998 20.446292 L 45.103464 20.063158 L 45.165835 19.876046 L 45.228206 19.648838 L 45.259391 19.390445 L 45.290577 19.100867 L 45.424228 18.811289 L 45.352947 18.396969 L 45.393043 18.209857 L 45.548969 17.759897 L 45.548969 17.537144 L 45.61134 17.283206 L 45.642526 17.055999 L 45.673711 16.735235 L 45.776177 16.516938 L 45.807362 16.320915 L 45.869733 15.844225 L 45.963289 15.358624 L 45.994475 15.100231 L 46.159311 14.654726 L 46.190497 14.427519 L 46.190497 14.11121 L 46.221682 13.857272 L 46.284053 13.438497 L 46.413249 13.055363 L 46.413249 12.837066 L 46.480075 12.641043 L 46.51126 12.413836 L 46.573631 12.155443 L 46.636002 11.874775 L 46.698373 11.647567 L 46.667187 11.202062 L 46.734013 10.974854 L 46.796384 10.783287 L 46.796384 10.337782 L 46.765198 9.861092 L 46.480075 9.633884 L 45.963289 9.602699 L 45.673711 9.571513 L 44.907442 9.633884 L 43.562017 9.602699 L 43.276894 9.633884 L 43.116512 9.633884 L 42.572996 9.665069 L 42.376973 9.72744 L 42.314603 9.985833 L 42.189861 10.431338 L 42.12749 10.881298 L 42.06512 11.202062 L 41.993839 11.357989 L 41.837912 11.772308 L 41.744356 12.672229 L 41.673075 12.868251 L 41.673075 13.086548 L 41.579519 13.540964 L 41.579519 13.790446 L 41.548334 14.048839 L 41.454778 14.494345 L 41.423592 14.748282 L 41.392407 14.97549 L 41.22757 15.38981 L 41.196385 15.585832 L 41.196385 15.804129 L 41.134014 16.227359 L 41.071643 16.414471 L 40.969177 17.314392 L 40.875621 17.505959 L 40.844436 17.951464 L 40.844436 18.209857 L 40.719694 18.655362 L 40.617228 19.069682 L 40.586043 19.524097 L 40.461301 19.938417 L 40.461301 20.352736 L 40.398931 20.579944 L 40.296465 20.963078 L 40.265279 21.185831 L 40.296465 21.404128 L 40.202909 21.787263 L 40.171723 21.983285 L 40.140538 22.210493 L 40.011341 22.593627 L 40.011341 23.007947 L 39.944516 23.32871 L 39.882145 23.711845 L 39.850959 24.197445 L 39.819774 24.60731 L 39.690578 25.467135 L 39.628207 25.756713 L 39.597022 26.852655 L 39.565836 27.039768 L 39.690578 28.1268 L 39.726218 28.57676 L 39.850959 29.084636 L 40.109352 29.539051 L 40.358835 30.046927 L 40.398931 30.140483 L 40.554858 30.398876 L 40.719694 30.594898 L 40.906807 30.813196 L 41.22757 31.133959 L 41.869098 31.521549 L 42.06512 31.615105 L 42.283417 31.713116 L 42.831388 31.904683 L 42.95613 31.967054 L 43.178882 32.029425 Z M 59.435363 32.194261 L 60.295188 32.194261 L 60.811974 32.154166 L 61.453501 32.06061 L 61.961377 31.935868 L 62.250955 31.842312 L 62.509348 31.775487 L 62.794471 31.615105 L 63.052864 31.521549 L 63.56074 31.236425 L 64.046341 30.813196 L 64.523031 30.461247 L 64.750239 30.140483 L 64.87498 29.859815 L 65.102188 29.539051 L 65.226929 29.280658 L 65.391766 29.053451 L 65.516507 28.732687 L 65.610063 28.411923 L 65.7749 27.970873 L 65.899642 27.681295 L 65.899642 27.454087 L 66.028838 27.23579 L 66.028838 27.008582 L 66.122394 26.781375 L 66.122394 26.531892 L 66.158035 26.242314 L 66.251591 26.015106 L 66.18922 25.787898 L 66.318416 25.569601 L 66.349602 25.248837 L 66.443158 24.990444 L 66.443158 24.669681 L 66.474343 24.322187 L 66.599085 23.74303 L 66.701551 23.555918 L 66.732736 23.132688 L 66.795107 22.914391 L 66.826292 22.718368 L 66.826292 22.491161 L 66.888663 22.272863 L 67.0535 21.787263 L 67.115871 21.056634 L 67.240612 20.6735 L 67.271797 20.290366 L 67.405449 19.938417 L 67.436634 19.524097 L 67.499005 19.100867 L 67.499005 18.88257 L 67.53019 18.686547 L 67.592561 18.241042 L 67.726212 18.04502 L 67.726212 17.407948 L 67.819769 17.18965 L 67.819769 16.962443 L 67.882139 16.735235 L 67.882139 16.445657 L 68.015791 16.227359 L 68.078162 15.772944 L 68.109347 15.358624 L 68.109347 15.131417 L 68.202903 14.717097 L 68.492481 13.572149 L 68.492481 13.344941 L 68.617223 12.899436 L 68.657318 12.703414 L 68.750874 11.803494 L 68.813245 11.616382 L 68.84443 11.389174 L 68.875616 11.202062 L 68.875616 10.974854 L 68.906801 10.752102 L 68.906801 10.560535 L 68.978082 10.337782 L 68.937986 10.14176 L 68.875616 9.789811 L 68.554852 9.665069 L 68.336554 9.633884 L 68.296459 9.633884 L 68.171718 9.602699 L 66.701551 9.602699 L 66.318416 9.571513 L 65.008631 9.571513 L 64.719053 9.602699 L 62.602904 9.602699 L 62.384607 9.571513 L 61.547057 9.469047 L 60.843159 9.602699 L 60.397654 9.571513 L 59.943239 9.602699 L 59.466548 9.602699 L 59.114599 9.696255 L 59.021043 9.820996 L 58.891847 10.048204 L 58.798291 10.337782 L 58.767105 10.59172 L 58.73592 11.170877 L 58.673549 11.389174 L 58.571083 11.616382 L 58.571083 11.803494 L 58.508712 12.195538 L 58.477527 12.413836 L 58.383971 13.117734 L 58.415156 13.344941 L 58.571083 13.665705 L 58.829476 13.69689 L 59.181425 13.728076 L 62.954853 13.728076 L 63.725577 13.759261 L 63.725577 13.955283 L 63.623111 14.427519 L 63.56074 14.913119 L 63.498369 15.100231 L 63.467184 15.523461 L 63.404813 15.741759 L 63.404813 15.937781 L 63.311257 16.383286 L 63.239976 16.610494 L 63.239976 16.797606 L 63.208791 17.024813 L 63.208791 17.345577 L 63.115235 17.56833 L 63.052864 17.951464 L 63.021679 18.178672 L 62.954853 18.365784 L 62.888027 18.686547 L 62.888027 18.88257 L 62.856842 19.328075 L 62.825657 19.742394 L 62.763286 19.969602 L 62.732101 20.227995 L 62.66973 20.6735 L 62.571719 21.248202 L 62.509348 21.724892 L 62.384607 22.335234 L 62.317781 22.531256 L 62.348966 22.749554 L 62.21977 23.32871 L 62.157399 23.74303 L 62.095028 23.970238 L 62.095028 24.15735 L 62.001472 24.60731 L 61.930191 24.990444 L 61.867821 25.280023 L 61.711894 26.077477 L 61.578242 26.531892 L 61.484686 26.977397 L 61.288664 27.391717 L 61.101552 27.65011 L 60.749603 27.904047 L 60.335283 27.939688 L 59.983334 27.939688 L 59.693756 27.774851 L 59.435363 27.485273 L 59.341807 27.173419 L 59.310621 26.750189 L 59.310621 26.211128 L 59.404178 25.342393 L 59.466548 24.60731 L 59.528919 24.063794 L 59.622475 23.524733 L 59.724941 22.459975 L 59.724941 22.139212 L 59.662571 21.756077 L 59.372992 21.693707 L 59.341807 21.662521 L 58.187949 21.631336 L 57.711258 21.631336 L 57.608792 21.662521 L 57.132102 21.631336 L 56.842523 21.600151 L 56.169811 21.662521 L 55.947058 21.662521 L 55.786676 21.787263 L 55.501553 21.889729 L 55.341171 22.108026 L 55.309986 22.459975 L 55.274345 23.101503 L 55.087233 23.774215 L 55.056048 24.353372 L 55.024863 24.865703 L 54.993677 26.015106 L 54.953582 26.273499 L 54.953582 26.915026 L 54.993677 27.329346 L 55.087233 28.157985 L 55.149604 28.349553 L 55.149604 28.545575 L 55.211975 28.866338 L 55.341171 29.115821 L 55.407997 29.507866 L 55.470368 29.694978 L 55.817862 30.242949 L 56.076255 30.563713 L 56.365833 30.884476 L 56.52176 31.102774 L 56.976175 31.392352 L 57.390495 31.615105 L 57.804814 31.775487 L 57.929556 31.842312 L 58.250319 31.967054 L 58.539898 32.06061 L 58.891847 32.122981 L 59.21261 32.154166 Z M 72.36392 32.029425 L 72.622313 31.998239 L 73.130189 31.967054 L 73.802902 31.967054 L 73.994469 31.935868 L 74.408789 31.967054 L 74.925575 31.935868 L 77.963919 31.935868 L 78.057475 31.583919 L 78.119846 31.298796 L 78.151031 30.750825 L 78.253498 30.274135 L 78.284683 30.046927 L 78.347054 29.859815 L 78.409424 29.632607 L 78.409424 29.218287 L 78.543076 28.514389 L 78.574261 28.255996 L 78.636632 27.904047 L 78.667817 27.774851 L 78.699003 27.525368 L 78.471795 27.422902 L 77.580785 27.454087 L 76.876887 27.422902 L 76.426927 27.391717 L 74.54244 27.391717 L 74.088025 27.329346 L 73.963284 27.204605 L 73.963284 26.946212 L 74.088025 26.108662 L 74.190491 25.538415 L 74.252862 25.311208 L 74.284047 24.990444 L 74.346418 24.705321 L 74.439974 24.384557 L 74.573626 23.484637 L 74.667182 23.070317 L 74.791923 22.718368 L 75.081501 22.718368 L 75.504731 22.687183 L 75.85668 22.687183 L 76.395741 22.718368 L 77.197651 22.687183 L 77.482774 22.687183 L 77.963919 22.655998 L 78.284683 22.655998 L 78.347054 22.593627 L 78.409424 22.139212 L 78.511891 21.631336 L 78.574261 21.185831 L 78.667817 20.931893 L 78.667817 20.704685 L 78.761373 20.227995 L 78.832654 20.000787 L 78.92621 19.555282 L 78.988581 19.203333 L 78.988581 18.94494 L 79.050952 18.561806 L 78.86384 18.303413 L 78.605447 18.241042 L 77.767897 18.241042 L 77.166465 18.303413 L 76.043792 18.272228 L 75.464636 18.272228 L 75.535917 17.697526 L 75.629473 17.376762 L 75.598287 17.118369 L 75.660658 16.900072 L 75.754214 16.445657 L 75.816585 16.000152 L 75.919051 15.38981 L 75.919051 15.131417 L 76.012607 14.944305 L 76.012607 14.494345 L 76.043792 14.271592 L 76.137348 13.888458 L 76.912527 13.857272 L 78.988581 13.857272 L 79.371715 13.821632 L 80.717141 13.821632 L 81.033449 13.790446 L 81.127005 13.376127 L 81.167101 13.189015 L 81.291842 12.734599 L 81.291842 12.476206 L 81.385398 11.999516 L 81.416584 11.803494 L 81.447769 11.585196 L 81.550235 11.357989 L 81.550235 11.170877 L 81.612606 10.368967 L 81.612606 10.181855 L 81.706162 9.820996 L 81.550235 9.602699 L 81.260657 9.571513 L 80.939893 9.540328 L 80.650315 9.571513 L 79.950872 9.571513 L 79.019766 9.602699 L 78.761373 9.571513 L 78.02629 9.540328 L 75.629473 9.571513 L 74.925575 9.602699 L 74.604811 9.602699 L 74.346418 9.571513 L 74.11921 9.571513 L 73.740531 9.602699 L 73.517779 9.571513 L 73.326211 9.602699 L 72.77824 9.602699 L 72.528757 9.789811 L 72.488662 9.985833 L 72.395106 10.181855 L 72.30155 10.560535 L 72.36392 10.783287 L 72.332735 10.974854 L 72.30155 11.389174 L 72.270364 11.585196 L 72.207994 11.772308 L 72.176808 12.195538 L 72.105527 12.413836 L 72.136713 12.609858 L 72.043157 12.837066 L 72.043157 13.055363 L 71.949601 13.251385 L 71.88723 13.69689 L 71.753578 14.11121 L 71.722393 14.333963 L 71.753578 14.529985 L 71.722393 14.748282 L 71.660022 15.006675 L 71.535281 15.202698 L 71.504096 15.87541 L 71.401629 16.093708 L 71.370444 16.993628 L 71.245703 17.470318 L 71.143236 17.920279 L 71.183332 18.107391 L 71.112051 18.334598 L 71.018495 18.592991 L 70.831383 19.555282 L 70.697731 19.742394 L 70.697731 19.969602 L 70.666546 20.19681 L 70.635361 20.446292 L 70.541805 20.6735 L 70.474979 21.15019 L 70.345782 21.600151 L 70.345782 22.076841 L 70.221041 22.749554 L 70.154215 22.976761 L 70.060659 23.453452 L 70.029474 23.680659 L 69.935918 23.907867 L 69.837907 24.322187 L 69.869092 24.513754 L 69.739895 24.896888 L 69.739895 25.052815 L 69.677525 25.467135 L 69.615154 25.725528 L 69.615154 25.952735 L 69.552783 26.460611 L 69.419132 26.719004 L 69.356761 27.133324 L 69.325576 27.587739 L 69.29439 27.806036 L 69.23202 28.064429 L 69.23202 28.287182 L 69.169649 28.514389 L 69.169649 28.795058 L 69.067183 29.053451 L 69.035997 29.570236 L 68.911256 30.046927 L 68.848885 30.563713 L 68.777604 31.040403 L 68.715234 31.329982 L 68.621678 31.615105 L 68.715234 31.904683 L 69.004812 31.967054 L 70.697731 31.967054 L 70.924939 31.998239 L 71.753578 31.998239 Z M 81.13146 32.029425 L 81.54578 31.998239 L 81.772988 32.029425 L 82.668453 32.029425 L 82.989217 31.998239 L 85.613242 31.998239 L 86.254769 31.967054 L 86.700274 32.029425 L 87.176964 31.998239 L 87.756121 32.029425 L 88.460019 31.935868 L 88.874339 31.873498 L 89.480226 31.873498 L 89.738619 31.64629 L 89.86336 31.133959 L 89.934641 30.657269 L 89.965826 30.461247 L 89.965826 30.242949 L 90.059382 30.015742 L 90.215309 28.897524 L 90.317775 28.639131 L 90.28659 28.411923 L 90.348961 28.193626 L 90.380146 27.71248 L 90.184124 27.618924 L 89.355484 27.618924 L 88.656041 27.65011 L 86.989852 27.65011 L 86.700274 27.618924 L 86.37951 27.618924 L 86.214673 27.454087 L 86.214673 27.133324 L 86.285954 26.81256 L 86.31714 26.460611 L 86.37951 26.242314 L 86.410696 26.046291 L 86.441881 25.819084 L 86.441881 25.50723 L 86.504252 25.217652 L 86.535437 24.798877 L 86.669089 24.384557 L 86.700274 23.939052 L 86.762645 23.680659 L 86.762645 23.453452 L 86.896296 22.945576 L 86.927482 22.718368 L 86.958667 22.459975 L 87.052223 22.01447 L 87.083408 21.53778 L 87.20815 21.025449 L 87.248245 20.798241 L 87.341801 20.321551 L 87.404172 20.094343 L 87.404172 19.648838 L 87.466543 19.421631 L 87.569009 18.748918 L 87.569009 18.490525 L 87.63138 18.272228 L 87.600194 18.013835 L 87.724936 17.791082 L 87.818492 17.376762 L 87.920958 16.931257 L 87.983329 16.70405 L 88.014514 16.476842 L 88.076885 16.227359 L 88.014514 15.968966 L 88.139255 15.741759 L 88.201626 15.296254 L 88.335278 14.850749 L 88.335278 14.592356 L 88.428834 14.142395 L 88.687227 13.024178 L 88.749597 12.703414 L 88.811968 12.351465 L 88.909979 11.678752 L 88.97235 11.48273 L 88.97235 11.264433 L 89.163917 10.493709 L 89.163917 10.275411 L 89.195102 10.048204 L 89.101546 9.665069 L 88.460019 9.633884 L 87.20815 9.633884 L 86.027561 9.602699 L 85.261293 9.602699 L 84.748962 9.665069 L 84.655406 9.861092 L 84.490569 10.493709 L 84.428198 10.685276 L 84.428198 10.912484 L 84.397013 11.295618 L 84.272271 11.678752 L 84.169805 12.195538 L 84.13862 12.703414 L 84.013878 12.930622 L 84.013878 13.117734 L 83.982693 13.344941 L 83.982693 13.572149 L 83.849041 13.759261 L 83.786671 14.11121 L 83.755485 14.529985 L 83.693115 14.779468 L 83.755485 15.006675 L 83.693115 15.265068 L 83.568373 15.710573 L 83.465907 15.968966 L 83.497092 16.227359 L 83.403536 16.900072 L 83.341166 17.283206 L 83.341166 17.505959 L 83.176329 17.920279 L 83.176329 18.365784 L 83.145143 18.624177 L 82.989217 19.038496 L 82.926846 19.421631 L 82.855565 19.844861 L 82.668453 20.735871 L 82.668453 20.896253 L 82.534801 21.341758 L 82.41006 22.304049 L 82.254133 22.749554 L 82.254133 22.976761 L 82.124937 23.422266 L 82.124937 23.618289 L 82.093751 23.845496 L 82.058111 24.032608 L 82.058111 24.478113 L 81.99574 24.669681 L 81.93337 25.115186 L 81.902184 25.311208 L 81.902184 25.50723 L 81.804173 25.725528 L 81.710617 26.139847 L 81.741802 26.33587 L 81.648246 26.563077 L 81.585876 26.750189 L 81.421039 27.204605 L 81.421039 27.587739 L 81.358668 27.872862 L 81.296297 28.287182 L 81.265112 28.478749 L 81.265112 28.701502 L 81.13146 29.115821 L 81.13146 29.601422 L 81.006719 30.015742 L 80.975534 30.211764 L 80.944348 30.430061 L 80.841882 30.750825 L 80.717141 31.071589 L 80.685955 31.267611 L 80.717141 31.454723 L 80.748326 31.677476 L 80.873067 31.873498 Z M 81.13146 32.029425 " transform="matrix(0.876814,0,0,0.876814,9.64016,-6.505716)"/>
</g>
<path style=" stroke:none;fill-rule:nonzero;fill:rgb(47.059631%,62.748718%,81.17981%);fill-opacity:1;" d="M 1.320312 9.886719 C 1.320312 10.070312 1.257812 10.226562 1.128906 10.355469 C 1 10.484375 0.84375 10.546875 0.660156 10.546875 C 0.476562 10.546875 0.324219 10.484375 0.195312 10.355469 C 0.0664062 10.226562 0 10.070312 0 9.886719 C 0 9.707031 0.0664062 9.550781 0.195312 9.421875 C 0.324219 9.292969 0.476562 9.226562 0.660156 9.226562 C 0.84375 9.226562 1 9.292969 1.128906 9.421875 C 1.257812 9.550781 1.320312 9.707031 1.320312 9.886719 Z M 1.320312 9.886719 "/>
<path style=" stroke:none;fill-rule:nonzero;fill:rgb(94.509888%,73.728943%,9.799194%);fill-opacity:1;" d="M 22.128906 4.605469 C 22.128906 4.695312 22.09375 4.773438 22.03125 4.835938 C 21.964844 4.902344 21.886719 4.933594 21.796875 4.933594 C 21.707031 4.933594 21.628906 4.902344 21.5625 4.835938 C 21.5 4.773438 21.46875 4.695312 21.46875 4.605469 C 21.46875 4.511719 21.5 4.433594 21.5625 4.371094 C 21.628906 4.304688 21.707031 4.273438 21.796875 4.273438 C 21.886719 4.273438 21.964844 4.304688 22.03125 4.371094 C 22.09375 4.433594 22.128906 4.511719 22.128906 4.605469 Z M 22.128906 4.605469 "/>
<g clip-path="url(#clip2)" clip-rule="nonzero">
<path style=" stroke:none;fill-rule:nonzero;fill:rgb(80.778503%,88.238525%,95.689392%);fill-opacity:1;" d="M 25.101562 16.824219 C 25.101562 17.625 25.023438 18.421875 24.863281 19.207031 C 24.707031 19.996094 24.476562 20.757812 24.167969 21.5 C 23.863281 22.242188 23.484375 22.945312 23.039062 23.613281 C 22.59375 24.28125 22.089844 24.898438 21.519531 25.464844 C 20.953125 26.03125 20.335938 26.539062 19.667969 26.984375 C 19.003906 27.429688 18.296875 27.804688 17.554688 28.113281 C 16.816406 28.421875 16.050781 28.652344 15.265625 28.808594 C 14.476562 28.964844 13.683594 29.042969 12.878906 29.042969 C 12.078125 29.042969 11.285156 28.964844 10.496094 28.808594 C 9.710938 28.652344 8.945312 28.421875 8.203125 28.113281 C 7.460938 27.804688 6.757812 27.429688 6.089844 26.984375 C 5.425781 26.539062 4.808594 26.03125 4.238281 25.464844 C 3.671875 24.898438 3.164062 24.28125 2.71875 23.613281 C 2.273438 22.945312 1.898438 22.242188 1.589844 21.5 C 1.285156 20.757812 1.050781 19.996094 0.894531 19.207031 C 0.738281 18.421875 0.660156 17.625 0.660156 16.824219 C 0.660156 16.019531 0.738281 15.226562 0.894531 14.441406 C 1.050781 13.652344 1.285156 12.886719 1.589844 12.148438 C 1.898438 11.40625 2.273438 10.703125 2.71875 10.035156 C 3.164062 9.367188 3.671875 8.75 4.238281 8.183594 C 4.808594 7.617188 5.425781 7.109375 6.089844 6.664062 C 6.757812 6.21875 7.460938 5.839844 8.203125 5.535156 C 8.945312 5.226562 9.710938 4.996094 10.496094 4.839844 C 11.285156 4.683594 12.078125 4.605469 12.878906 4.605469 C 13.683594 4.605469 14.476562 4.683594 15.265625 4.839844 C 16.050781 4.996094 16.816406 5.226562 17.554688 5.535156 C 18.296875 5.839844 19.003906 6.21875 19.667969 6.664062 C 20.335938 7.109375 20.953125 7.617188 21.519531 8.183594 C 22.089844 8.75 22.59375 9.367188 23.039062 10.035156 C 23.484375 10.703125 23.863281 11.40625 24.167969 12.148438 C 24.476562 12.886719 24.707031 13.652344 24.863281 14.441406 C 25.023438 15.226562 25.101562 16.019531 25.101562 16.824219 Z M 25.101562 16.824219 "/>
</g>
<g clip-path="url(#clip3)" clip-rule="nonzero">
<path style=" stroke:none;fill-rule:nonzero;fill:rgb(94.509888%,73.728943%,9.799194%);fill-opacity:1;" d="M 25.101562 5.265625 C 25.101562 5.441406 25.066406 5.609375 25 5.769531 C 24.933594 5.933594 24.835938 6.074219 24.714844 6.199219 C 24.589844 6.324219 24.445312 6.417969 24.285156 6.484375 C 24.121094 6.550781 23.953125 6.585938 23.777344 6.585938 C 23.605469 6.585938 23.433594 6.550781 23.273438 6.484375 C 23.113281 6.417969 22.96875 6.324219 22.84375 6.199219 C 22.722656 6.074219 22.625 5.933594 22.558594 5.769531 C 22.492188 5.609375 22.457031 5.441406 22.457031 5.265625 C 22.457031 5.089844 22.492188 4.921875 22.558594 4.757812 C 22.625 4.597656 22.722656 4.453125 22.84375 4.332031 C 22.96875 4.207031 23.113281 4.109375 23.273438 4.042969 C 23.433594 3.976562 23.605469 3.945312 23.777344 3.945312 C 23.953125 3.945312 24.121094 3.976562 24.285156 4.042969 C 24.445312 4.109375 24.589844 4.207031 24.714844 4.332031 C 24.835938 4.453125 24.933594 4.597656 25 4.757812 C 25.066406 4.921875 25.101562 5.089844 25.101562 5.265625 Z M 25.101562 5.265625 "/>
</g>
<g clip-path="url(#clip4)" clip-rule="nonzero">
<path style=" stroke:none;fill-rule:nonzero;fill:rgb(47.059631%,62.748718%,81.17981%);fill-opacity:1;" d="M 25.761719 8.238281 C 25.761719 8.417969 25.695312 8.574219 25.566406 8.703125 C 25.4375 8.832031 25.28125 8.898438 25.101562 8.898438 C 24.917969 8.898438 24.761719 8.832031 24.632812 8.703125 C 24.503906 8.574219 24.4375 8.417969 24.4375 8.238281 C 24.4375 8.054688 24.503906 7.898438 24.632812 7.769531 C 24.761719 7.640625 24.917969 7.578125 25.101562 7.578125 C 25.28125 7.578125 25.4375 7.640625 25.566406 7.769531 C 25.695312 7.898438 25.761719 8.054688 25.761719 8.238281 Z M 25.761719 8.238281 "/>
</g>
<path style=" stroke:none;fill-rule:nonzero;fill:rgb(98.429871%,80.389404%,34.899902%);fill-opacity:1;" d="M 23.777344 25.410156 C 23.777344 25.59375 23.714844 25.75 23.585938 25.878906 C 23.457031 26.007812 23.300781 26.070312 23.117188 26.070312 C 22.9375 26.070312 22.78125 26.007812 22.652344 25.878906 C 22.523438 25.75 22.457031 25.59375 22.457031 25.410156 C 22.457031 25.226562 22.523438 25.074219 22.652344 24.945312 C 22.78125 24.8125 22.9375 24.75 23.117188 24.75 C 23.300781 24.75 23.457031 24.8125 23.585938 24.945312 C 23.714844 25.074219 23.777344 25.226562 23.777344 25.410156 Z M 23.777344 25.410156 "/>
<path style=" stroke:none;fill-rule:nonzero;fill:rgb(98.429871%,80.389404%,34.899902%);fill-opacity:1;" d="M 2.640625 21.117188 C 2.640625 21.292969 2.609375 21.460938 2.542969 21.621094 C 2.472656 21.785156 2.378906 21.925781 2.253906 22.050781 C 2.132812 22.175781 1.988281 22.269531 1.828125 22.335938 C 1.664062 22.40625 1.496094 22.4375 1.320312 22.4375 C 1.144531 22.4375 0.976562 22.40625 0.816406 22.335938 C 0.652344 22.269531 0.511719 22.175781 0.386719 22.050781 C 0.261719 21.925781 0.167969 21.785156 0.101562 21.621094 C 0.0351562 21.460938 0 21.292969 0 21.117188 C 0 20.941406 0.0351562 20.773438 0.101562 20.613281 C 0.167969 20.449219 0.261719 20.308594 0.386719 20.183594 C 0.511719 20.058594 0.652344 19.964844 0.816406 19.898438 C 0.976562 19.828125 1.144531 19.796875 1.320312 19.796875 C 1.496094 19.796875 1.664062 19.828125 1.828125 19.898438 C 1.988281 19.964844 2.132812 20.058594 2.253906 20.183594 C 2.378906 20.308594 2.472656 20.449219 2.542969 20.613281 C 2.609375 20.773438 2.640625 20.941406 2.640625 21.117188 Z M 2.640625 21.117188 "/>
<g clip-path="url(#clip5)" clip-rule="nonzero">
<path style=" stroke:none;fill-rule:nonzero;fill:rgb(47.059631%,62.748718%,81.17981%);fill-opacity:1;" d="M 5.285156 29.042969 C 5.285156 29.226562 5.21875 29.382812 5.089844 29.511719 C 4.960938 29.640625 4.804688 29.703125 4.625 29.703125 C 4.441406 29.703125 4.285156 29.640625 4.15625 29.511719 C 4.027344 29.382812 3.964844 29.226562 3.964844 29.042969 C 3.964844 28.859375 4.027344 28.707031 4.15625 28.578125 C 4.285156 28.449219 4.441406 28.382812 4.625 28.382812 C 4.804688 28.382812 4.960938 28.449219 5.089844 28.578125 C 5.21875 28.707031 5.285156 28.859375 5.285156 29.042969 Z M 5.285156 29.042969 "/>
</g>
<path style=" stroke:none;fill-rule:nonzero;fill:rgb(100%,100%,100%);fill-opacity:1;" d="M 3.964844 14.015625 C 3.964844 14.246094 3.882812 14.4375 3.722656 14.601562 C 3.558594 14.761719 3.367188 14.84375 3.136719 14.84375 C 2.910156 14.84375 2.714844 14.761719 2.554688 14.601562 C 2.390625 14.4375 2.3125 14.246094 2.3125 14.015625 C 2.3125 13.789062 2.390625 13.59375 2.554688 13.433594 C 2.714844 13.269531 2.910156 13.191406 3.136719 13.191406 C 3.367188 13.191406 3.558594 13.269531 3.722656 13.433594 C 3.882812 13.59375 3.964844 13.789062 3.964844 14.015625 Z M 3.964844 14.015625 "/>
<path style=" stroke:none;fill-rule:nonzero;fill:rgb(94.509888%,73.728943%,9.799194%);fill-opacity:1;" d="M 3.632812 22.4375 C 3.632812 22.527344 3.601562 22.605469 3.535156 22.671875 C 3.472656 22.734375 3.394531 22.769531 3.300781 22.769531 C 3.210938 22.769531 3.132812 22.734375 3.070312 22.671875 C 3.003906 22.605469 2.972656 22.527344 2.972656 22.4375 C 2.972656 22.347656 3.003906 22.269531 3.070312 22.203125 C 3.132812 22.140625 3.210938 22.109375 3.300781 22.109375 C 3.394531 22.109375 3.472656 22.140625 3.535156 22.203125 C 3.601562 22.269531 3.632812 22.347656 3.632812 22.4375 Z M 3.632812 22.4375 "/>
<path style=" stroke:none;fill-rule:nonzero;fill:rgb(100%,100%,100%);fill-opacity:1;" d="M 23.117188 11.539062 C 23.117188 11.628906 23.085938 11.707031 23.023438 11.773438 C 22.957031 11.835938 22.878906 11.871094 22.789062 11.871094 C 22.695312 11.871094 22.617188 11.835938 22.554688 11.773438 C 22.488281 11.707031 22.457031 11.628906 22.457031 11.539062 C 22.457031 11.449219 22.488281 11.371094 22.554688 11.304688 C 22.617188 11.242188 22.695312 11.210938 22.789062 11.210938 C 22.878906 11.210938 22.957031 11.242188 23.023438 11.304688 C 23.085938 11.371094 23.117188 11.449219 23.117188 11.539062 Z M 23.117188 11.539062 "/>
<path style=" stroke:none;fill-rule:nonzero;fill:rgb(100%,100%,100%);fill-opacity:1;" d="M 12.878906 26.34375 C 12.847656 26.339844 11.363281 26.316406 10.261719 25.230469 C 9.09375 24.074219 7.515625 22.125 7.5 22.105469 C 7.484375 22.085938 5.964844 20.167969 5.964844 17.535156 L 5.964844 12.425781 C 5.945312 12.277344 5.625 9.441406 8.175781 8.71875 C 9.503906 8.34375 11.171875 8.136719 12.878906 8.136719 C 14.589844 8.136719 16.257812 8.34375 17.582031 8.71875 C 20.140625 9.441406 19.8125 12.277344 19.800781 12.398438 L 19.796875 17.535156 C 19.796875 20.167969 18.273438 22.085938 18.261719 22.105469 C 18.246094 22.125 16.664062 24.074219 15.496094 25.230469 C 14.398438 26.316406 12.910156 26.339844 12.878906 26.34375 Z M 12.878906 26.34375 "/>
<path style=" stroke:none;fill-rule:nonzero;fill:rgb(27.839661%,16.859436%,16.079712%);fill-opacity:1;" d="M 12.878906 8.367188 C 14.566406 8.367188 16.214844 8.570312 17.519531 8.941406 C 19.875 9.605469 19.582031 12.257812 19.570312 12.367188 L 19.566406 12.398438 L 19.566406 17.535156 C 19.566406 20.078125 18.09375 21.941406 18.082031 21.960938 C 18.066406 21.980469 16.492188 23.917969 15.335938 25.066406 C 14.300781 26.089844 12.894531 26.109375 12.882812 26.109375 C 12.867188 26.109375 11.460938 26.089844 10.425781 25.066406 C 9.265625 23.917969 7.695312 21.980469 7.679688 21.960938 C 7.664062 21.941406 6.195312 20.078125 6.195312 17.535156 L 6.195312 12.398438 L 6.191406 12.367188 C 6.175781 12.253906 5.871094 9.609375 8.242188 8.941406 C 9.546875 8.570312 11.191406 8.367188 12.878906 8.367188 M 12.878906 7.90625 C 11.191406 7.90625 9.503906 8.101562 8.113281 8.496094 C 5.335938 9.28125 5.730469 12.425781 5.730469 12.425781 C 5.730469 12.425781 5.730469 14.785156 5.730469 17.535156 C 5.730469 20.285156 7.320312 22.25 7.320312 22.25 C 7.320312 22.25 8.910156 24.214844 10.101562 25.394531 C 11.292969 26.574219 12.878906 26.574219 12.878906 26.574219 C 12.878906 26.574219 14.46875 26.574219 15.660156 25.394531 C 16.851562 24.214844 18.441406 22.25 18.441406 22.25 C 18.441406 22.25 20.027344 20.285156 20.027344 17.535156 C 20.027344 14.785156 20.027344 12.425781 20.027344 12.425781 C 20.027344 12.425781 20.425781 9.28125 17.644531 8.496094 C 16.253906 8.101562 14.566406 7.90625 12.878906 7.90625 Z M 12.878906 7.90625 "/>
<path style=" stroke:none;fill-rule:nonzero;fill:rgb(27.839661%,16.859436%,16.079712%);fill-opacity:1;" d="M 12.835938 18.734375 C 12.558594 18.734375 12.335938 18.644531 12.171875 18.464844 C 11.914062 18.183594 11.867188 17.75 11.902344 17.460938 C 11.902344 17.453125 11.960938 17.175781 12.046875 16.5625 C 12.050781 16.519531 12.09375 16.488281 12.136719 16.492188 C 12.183594 16.5 12.214844 16.542969 12.207031 16.585938 C 12.121094 17.203125 12.066406 17.476562 12.066406 17.488281 C 12.039062 17.683594 12.058594 18.097656 12.292969 18.351562 C 12.429688 18.503906 12.628906 18.574219 12.878906 18.566406 C 12.917969 18.5625 12.960938 18.601562 12.960938 18.648438 C 12.964844 18.691406 12.929688 18.730469 12.882812 18.734375 C 12.867188 18.734375 12.851562 18.734375 12.835938 18.734375 Z M 12.835938 18.734375 "/>
<path style=" stroke:none;fill-rule:nonzero;fill:rgb(27.839661%,16.859436%,16.079712%);fill-opacity:1;" d="M 12.191406 16.1875 C 12.1875 16.1875 12.183594 16.1875 12.179688 16.1875 C 12.132812 16.179688 12.101562 16.140625 12.109375 16.09375 C 12.144531 15.800781 12.1875 15.457031 12.230469 15.058594 C 12.238281 15.011719 12.277344 14.980469 12.324219 14.984375 C 12.367188 14.988281 12.402344 15.03125 12.394531 15.074219 C 12.351562 15.476562 12.308594 15.820312 12.273438 16.113281 C 12.265625 16.15625 12.230469 16.1875 12.191406 16.1875 Z M 12.191406 16.1875 "/>
<path style=" stroke:none;fill-rule:nonzero;fill:rgb(27.839661%,16.859436%,16.079712%);fill-opacity:1;" d="M 12.320312 14.535156 C 12.277344 14.535156 12.242188 14.503906 12.238281 14.460938 C 12.199219 14.070312 12.074219 13.699219 11.867188 13.363281 C 11.84375 13.324219 11.855469 13.273438 11.894531 13.25 C 11.933594 13.226562 11.984375 13.238281 12.007812 13.277344 C 12.230469 13.632812 12.363281 14.027344 12.402344 14.445312 C 12.40625 14.492188 12.375 14.53125 12.328125 14.535156 C 12.324219 14.535156 12.324219 14.535156 12.320312 14.535156 Z M 12.320312 14.535156 "/>
<path style=" stroke:none;fill-rule:nonzero;fill:rgb(27.839661%,16.859436%,16.079712%);fill-opacity:1;" d="M 10.324219 17.507812 C 10.300781 17.507812 10.277344 17.496094 10.261719 17.476562 C 10.230469 17.441406 10.238281 17.390625 10.273438 17.359375 C 10.648438 17.0625 10.882812 16.804688 10.886719 16.804688 C 10.917969 16.769531 10.96875 16.765625 11.003906 16.796875 C 11.035156 16.828125 11.039062 16.878906 11.007812 16.914062 C 10.996094 16.925781 10.761719 17.183594 10.375 17.488281 C 10.359375 17.5 10.34375 17.507812 10.324219 17.507812 Z M 10.324219 17.507812 "/>
<path style=" stroke:none;fill-rule:nonzero;fill:rgb(27.839661%,16.859436%,16.079712%);fill-opacity:1;" d="M 8.089844 18.460938 C 7.515625 18.460938 6.929688 18.238281 6.402344 17.621094 C 6.375 17.585938 6.378906 17.53125 6.414062 17.503906 C 6.449219 17.472656 6.5 17.476562 6.53125 17.511719 C 7.566406 18.726562 8.863281 18.296875 9.769531 17.71875 C 9.808594 17.695312 9.859375 17.707031 9.882812 17.746094 C 9.910156 17.785156 9.898438 17.835938 9.859375 17.859375 C 9.351562 18.183594 8.726562 18.460938 8.089844 18.460938 Z M 8.089844 18.460938 "/>
<path style=" stroke:none;fill-rule:nonzero;fill:rgb(27.839661%,16.859436%,16.079712%);fill-opacity:1;" d="M 17.628906 18.460938 C 17.339844 18.460938 17.039062 18.402344 16.71875 18.289062 C 16.675781 18.277344 16.652344 18.230469 16.667969 18.1875 C 16.683594 18.144531 16.730469 18.121094 16.773438 18.136719 C 17.730469 18.476562 18.542969 18.265625 19.183594 17.511719 C 19.214844 17.476562 19.265625 17.472656 19.300781 17.503906 C 19.335938 17.53125 19.339844 17.585938 19.308594 17.621094 C 18.832031 18.179688 18.269531 18.460938 17.628906 18.460938 Z M 17.628906 18.460938 "/>
<path style=" stroke:none;fill-rule:nonzero;fill:rgb(27.839661%,16.859436%,16.079712%);fill-opacity:1;" d="M 16.179688 18.039062 C 16.167969 18.039062 16.152344 18.035156 16.140625 18.027344 C 15.316406 17.578125 14.730469 16.941406 14.707031 16.914062 C 14.675781 16.878906 14.675781 16.828125 14.710938 16.796875 C 14.746094 16.765625 14.796875 16.769531 14.828125 16.804688 C 14.832031 16.808594 15.421875 17.449219 16.222656 17.882812 C 16.261719 17.90625 16.277344 17.957031 16.253906 17.996094 C 16.238281 18.023438 16.210938 18.039062 16.179688 18.039062 Z M 16.179688 18.039062 "/>
<path style=" stroke:none;fill-rule:nonzero;fill:rgb(27.839661%,16.859436%,16.079712%);fill-opacity:1;" d="M 14.34375 21.269531 L 11.371094 21.269531 C 11.28125 21.269531 11.207031 21.195312 11.207031 21.101562 C 11.207031 21.011719 11.28125 20.9375 11.371094 20.9375 L 14.34375 20.9375 C 14.433594 20.9375 14.507812 21.011719 14.507812 21.101562 C 14.507812 21.195312 14.433594 21.269531 14.34375 21.269531 Z M 14.34375 21.269531 "/>
<path style=" stroke:none;fill-rule:nonzero;fill:rgb(27.839661%,16.859436%,16.079712%);fill-opacity:1;" d="M 9.585938 21.652344 C 8.695312 21.371094 8.144531 20.507812 7.558594 19.597656 L 7.527344 19.542969 C 7.5 19.503906 7.511719 19.453125 7.550781 19.429688 C 7.589844 19.40625 7.640625 19.417969 7.664062 19.457031 L 7.699219 19.507812 C 8.292969 20.433594 8.800781 21.230469 9.632812 21.496094 Z M 9.585938 21.652344 "/>
<path style=" stroke:none;fill-rule:nonzero;fill:rgb(27.839661%,16.859436%,16.079712%);fill-opacity:1;" d="M 12.878906 22.082031 C 12.867188 22.082031 11.457031 22.070312 10.246094 21.820312 C 10.203125 21.8125 10.171875 21.769531 10.183594 21.726562 C 10.191406 21.679688 10.234375 21.652344 10.28125 21.660156 C 11.472656 21.902344 12.867188 21.914062 12.878906 21.917969 C 12.925781 21.917969 12.964844 21.953125 12.960938 22 C 12.960938 22.042969 12.925781 22.082031 12.878906 22.082031 Z M 12.878906 22.082031 "/>
<path style=" stroke:none;fill-rule:nonzero;fill:rgb(27.839661%,16.859436%,16.079712%);fill-opacity:1;" d="M 14.8125 21.921875 C 14.773438 21.921875 14.738281 21.890625 14.730469 21.847656 C 14.726562 21.804688 14.757812 21.761719 14.800781 21.753906 C 15.289062 21.6875 15.707031 21.597656 16.046875 21.496094 C 16.914062 21.230469 17.445312 20.429688 18.0625 19.503906 L 18.097656 19.453125 C 18.121094 19.414062 18.171875 19.40625 18.210938 19.429688 C 18.25 19.457031 18.257812 19.507812 18.234375 19.546875 L 18.199219 19.597656 C 17.589844 20.507812 17.019531 21.371094 16.09375 21.652344 C 15.746094 21.761719 15.320312 21.847656 14.824219 21.917969 C 14.820312 21.917969 14.816406 21.921875 14.8125 21.921875 Z M 14.8125 21.921875 "/>
<path style=" stroke:none;fill-rule:nonzero;fill:rgb(27.839661%,16.859436%,16.079712%);fill-opacity:1;" d="M 12.878906 22.082031 C 12.835938 22.082031 12.796875 22.042969 12.796875 22 C 12.796875 21.953125 12.835938 21.917969 12.878906 21.917969 C 12.886719 21.917969 13.5 21.910156 14.238281 21.832031 C 14.285156 21.824219 14.324219 21.859375 14.328125 21.902344 C 14.335938 21.949219 14.300781 21.988281 14.257812 21.996094 C 13.507812 22.074219 12.886719 22.082031 12.882812 22.082031 C 12.878906 22.082031 12.878906 22.082031 12.878906 22.082031 Z M 12.878906 22.082031 "/>
<path style=" stroke:none;fill-rule:nonzero;fill:rgb(27.839661%,16.859436%,16.079712%);fill-opacity:1;" d="M 11.183594 14.691406 C 11.183594 14.691406 10.804688 13.933594 9.671875 13.933594 C 8.542969 13.933594 8.164062 14.691406 8.164062 14.691406 C 8.164062 14.691406 9.296875 15.445312 11.183594 14.691406 Z M 11.183594 14.691406 "/>
<path style=" stroke:none;fill-rule:nonzero;fill:rgb(27.839661%,16.859436%,16.079712%);fill-opacity:1;" d="M 9.558594 15.191406 C 8.636719 15.191406 8.105469 14.847656 8.074219 14.828125 C 8.003906 14.78125 7.980469 14.691406 8.015625 14.617188 C 8.035156 14.582031 8.453125 13.769531 9.671875 13.769531 C 10.894531 13.769531 11.3125 14.582031 11.332031 14.617188 C 11.351562 14.65625 11.351562 14.703125 11.335938 14.746094 C 11.320312 14.789062 11.285156 14.824219 11.242188 14.84375 C 10.589844 15.105469 10.023438 15.191406 9.558594 15.191406 Z M 8.402344 14.632812 C 8.738281 14.785156 9.617188 15.074219 10.925781 14.609375 C 10.757812 14.414062 10.378906 14.101562 9.671875 14.101562 C 8.945312 14.101562 8.5625 14.4375 8.402344 14.632812 Z M 8.402344 14.632812 "/>
<path style=" stroke:none;fill-rule:nonzero;fill:rgb(27.839661%,16.859436%,16.079712%);fill-opacity:1;" d="M 12.03125 18.792969 L 11.632812 19.390625 C 11.46875 19.636719 11.195312 19.78125 10.898438 19.78125 L 9.925781 19.78125 C 9.648438 19.78125 9.386719 19.652344 9.21875 19.429688 L 8.351562 18.273438 L 7.882812 18.367188 L 8.855469 20.089844 C 9.011719 20.367188 9.304688 20.539062 9.621094 20.539062 L 11.382812 20.539062 C 11.617188 20.539062 11.839844 20.445312 12.007812 20.28125 L 12.878906 19.40625 L 12.878906 18.839844 Z M 12.03125 18.792969 "/>
<path style=" stroke:none;fill-rule:nonzero;fill:rgb(27.839661%,16.859436%,16.079712%);fill-opacity:1;" d="M 12.878906 25.867188 C 10.992188 23.933594 12.878906 22.800781 11.9375 21.953125 L 12.878906 22.046875 Z M 12.878906 25.867188 "/>
<path style=" stroke:none;fill-rule:nonzero;fill:rgb(27.839661%,16.859436%,16.079712%);fill-opacity:1;" d="M 11.527344 12.007812 C 11.527344 12.007812 8.625 9.839844 7.222656 12.226562 C 7.820312 11.792969 8.875 11.195312 11.125 12.550781 C 11.777344 12.929688 11.929688 12.335938 11.527344 12.007812 Z M 11.527344 12.007812 "/>
<path style=" stroke:none;fill-rule:nonzero;fill:rgb(27.839661%,16.859436%,16.079712%);fill-opacity:1;" d="M 7.222656 15.484375 C 7.210938 15.484375 7.199219 15.480469 7.1875 15.476562 C 7.148438 15.457031 7.128906 15.410156 7.144531 15.367188 C 7.15625 15.347656 7.382812 14.835938 8.289062 14.65625 C 8.332031 14.648438 8.378906 14.675781 8.386719 14.71875 C 8.394531 14.765625 8.367188 14.808594 8.324219 14.816406 C 7.507812 14.980469 7.300781 15.429688 7.296875 15.433594 C 7.285156 15.464844 7.253906 15.484375 7.222656 15.484375 Z M 7.222656 15.484375 "/>
<path style=" stroke:none;fill-rule:nonzero;fill:rgb(27.839661%,16.859436%,16.079712%);fill-opacity:1;" d="M 8.109375 14.777344 C 7.890625 14.777344 7.414062 14.714844 7.105469 14.214844 C 7.082031 14.175781 7.09375 14.125 7.132812 14.101562 C 7.167969 14.078125 7.21875 14.089844 7.246094 14.128906 C 7.585938 14.683594 8.175781 14.609375 8.199219 14.609375 C 8.246094 14.601562 8.285156 14.632812 8.292969 14.679688 C 8.300781 14.722656 8.269531 14.765625 8.222656 14.769531 C 8.214844 14.773438 8.175781 14.777344 8.109375 14.777344 Z M 8.109375 14.777344 "/>
<path style=" stroke:none;fill-rule:nonzero;fill:rgb(27.839661%,16.859436%,16.079712%);fill-opacity:1;" d="M 12.875 18.734375 C 12.863281 18.734375 12.847656 18.734375 12.832031 18.734375 C 12.785156 18.730469 12.75 18.691406 12.75 18.648438 C 12.753906 18.601562 12.796875 18.566406 12.835938 18.566406 C 13.085938 18.574219 13.28125 18.503906 13.421875 18.351562 C 13.652344 18.097656 13.671875 17.6875 13.648438 17.480469 C 13.648438 17.480469 13.503906 16.757812 13.316406 15.074219 C 13.242188 14.417969 13.375 13.8125 13.707031 13.277344 C 13.730469 13.238281 13.78125 13.226562 13.820312 13.25 C 13.859375 13.273438 13.871094 13.324219 13.847656 13.363281 C 13.535156 13.867188 13.414062 14.4375 13.480469 15.058594 C 13.667969 16.730469 13.808594 17.449219 13.808594 17.457031 C 13.847656 17.75 13.796875 18.183594 13.542969 18.464844 C 13.378906 18.644531 13.15625 18.734375 12.875 18.734375 Z M 12.875 18.734375 "/>
<path style=" stroke:none;fill-rule:nonzero;fill:rgb(27.839661%,16.859436%,16.079712%);fill-opacity:1;" d="M 14.578125 19.003906 C 14.554688 19.003906 14.527344 19 14.503906 18.988281 C 14.421875 18.949219 14.390625 18.847656 14.429688 18.765625 C 14.46875 18.683594 14.464844 18.652344 14.464844 18.652344 C 14.464844 18.65625 14.441406 18.640625 14.367188 18.640625 C 14.28125 18.640625 14.125 18.660156 13.851562 18.730469 C 13.839844 18.734375 13.820312 18.738281 13.800781 18.742188 C 13.605469 18.820312 13.464844 18.875 13.367188 18.914062 C 13.058594 19.027344 12.707031 19.035156 12.390625 18.925781 C 12.28125 18.886719 12.128906 18.828125 11.910156 18.738281 C 11.898438 18.738281 11.886719 18.734375 11.871094 18.730469 C 11.433594 18.609375 11.3125 18.644531 11.289062 18.660156 C 11.292969 18.664062 11.296875 18.699219 11.332031 18.765625 C 11.371094 18.847656 11.335938 18.945312 11.253906 18.988281 C 11.171875 19.027344 11.074219 18.992188 11.035156 18.910156 C 10.9375 18.714844 10.9375 18.558594 11.035156 18.445312 C 11.195312 18.253906 11.558594 18.308594 11.878906 18.390625 C 11.90625 18.386719 11.933594 18.390625 11.960938 18.402344 C 12.210938 18.507812 12.382812 18.570312 12.5 18.613281 C 12.742188 18.695312 13.015625 18.691406 13.25 18.605469 C 13.359375 18.5625 13.519531 18.5 13.753906 18.402344 C 13.78125 18.390625 13.808594 18.386719 13.839844 18.390625 C 14.195312 18.304688 14.5625 18.253906 14.726562 18.453125 C 14.820312 18.566406 14.820312 18.71875 14.726562 18.910156 C 14.699219 18.96875 14.640625 19.003906 14.578125 19.003906 Z M 14.578125 19.003906 "/>
<path style=" stroke:none;fill-rule:nonzero;fill:rgb(27.839661%,16.859436%,16.079712%);fill-opacity:1;" d="M 14.34375 21.269531 L 11.371094 21.269531 C 11.28125 21.269531 11.207031 21.195312 11.207031 21.101562 C 11.207031 21.011719 11.28125 20.9375 11.371094 20.9375 L 14.34375 20.9375 C 14.433594 20.9375 14.507812 21.011719 14.507812 21.101562 C 14.507812 21.195312 14.433594 21.269531 14.34375 21.269531 Z M 14.34375 21.269531 "/>
<path style=" stroke:none;fill-rule:nonzero;fill:rgb(27.839661%,16.859436%,16.079712%);fill-opacity:1;" d="M 14.53125 14.691406 C 14.53125 14.691406 14.90625 13.933594 16.039062 13.933594 C 17.171875 13.933594 17.546875 14.691406 17.546875 14.691406 C 17.546875 14.691406 16.417969 15.445312 14.53125 14.691406 Z M 14.53125 14.691406 "/>
<path style=" stroke:none;fill-rule:nonzero;fill:rgb(27.839661%,16.859436%,16.079712%);fill-opacity:1;" d="M 16.15625 15.191406 C 15.6875 15.191406 15.121094 15.105469 14.46875 14.84375 C 14.425781 14.824219 14.394531 14.792969 14.375 14.746094 C 14.359375 14.703125 14.363281 14.65625 14.382812 14.617188 C 14.398438 14.582031 14.820312 13.769531 16.039062 13.769531 C 17.261719 13.769531 17.679688 14.582031 17.695312 14.617188 C 17.734375 14.691406 17.710938 14.78125 17.640625 14.828125 C 17.609375 14.847656 17.078125 15.191406 16.15625 15.191406 Z M 14.789062 14.609375 C 16.085938 15.070312 16.972656 14.78125 17.308594 14.628906 C 17.152344 14.433594 16.769531 14.101562 16.039062 14.101562 C 15.332031 14.101562 14.953125 14.414062 14.789062 14.609375 Z M 14.789062 14.609375 "/>
<path style=" stroke:none;fill-rule:nonzero;fill:rgb(27.839661%,16.859436%,16.079712%);fill-opacity:1;" d="M 13.683594 18.792969 L 14.082031 19.390625 C 14.242188 19.636719 14.519531 19.78125 14.8125 19.78125 L 15.789062 19.78125 C 16.066406 19.78125 16.328125 19.652344 16.492188 19.429688 L 17.359375 18.273438 L 17.832031 18.367188 L 16.859375 20.089844 C 16.703125 20.367188 16.410156 20.539062 16.089844 20.539062 L 14.328125 20.539062 C 14.097656 20.539062 13.871094 20.445312 13.707031 20.28125 L 12.832031 19.40625 L 12.832031 18.839844 Z M 13.683594 18.792969 "/>
<path style=" stroke:none;fill-rule:nonzero;fill:rgb(27.839661%,16.859436%,16.079712%);fill-opacity:1;" d="M 12.832031 25.867188 C 14.71875 23.933594 12.832031 22.800781 13.777344 21.953125 L 12.832031 22.046875 Z M 12.832031 25.867188 "/>
<path style=" stroke:none;fill-rule:nonzero;fill:rgb(27.839661%,16.859436%,16.079712%);fill-opacity:1;" d="M 14.1875 12.007812 C 14.1875 12.007812 17.089844 9.839844 18.492188 12.226562 C 17.890625 11.792969 16.839844 11.195312 14.585938 12.550781 C 13.933594 12.929688 13.785156 12.335938 14.1875 12.007812 Z M 14.1875 12.007812 "/>
<path style=" stroke:none;fill-rule:nonzero;fill:rgb(27.839661%,16.859436%,16.079712%);fill-opacity:1;" d="M 18.492188 15.484375 C 18.460938 15.484375 18.429688 15.464844 18.417969 15.433594 C 18.410156 15.425781 18.203125 14.980469 17.390625 14.816406 C 17.347656 14.808594 17.316406 14.765625 17.328125 14.722656 C 17.335938 14.675781 17.378906 14.648438 17.421875 14.65625 C 18.332031 14.835938 18.558594 15.347656 18.566406 15.371094 C 18.585938 15.410156 18.566406 15.460938 18.523438 15.476562 C 18.515625 15.480469 18.503906 15.484375 18.492188 15.484375 Z M 18.492188 15.484375 "/>
<path style=" stroke:none;fill-rule:nonzero;fill:rgb(27.839661%,16.859436%,16.079712%);fill-opacity:1;" d="M 17.601562 14.777344 C 17.539062 14.777344 17.496094 14.773438 17.488281 14.769531 C 17.445312 14.765625 17.414062 14.722656 17.421875 14.679688 C 17.425781 14.632812 17.464844 14.601562 17.511719 14.609375 C 17.539062 14.609375 18.125 14.683594 18.46875 14.128906 C 18.492188 14.089844 18.542969 14.078125 18.582031 14.101562 C 18.621094 14.125 18.632812 14.175781 18.609375 14.214844 C 18.300781 14.714844 17.820312 14.777344 17.601562 14.777344 Z M 17.601562 14.777344 "/>
<path style=" stroke:none;fill-rule:nonzero;fill:rgb(27.839661%,16.859436%,16.079712%);fill-opacity:1;" d="M 11.183594 18.921875 C 11.160156 18.921875 11.140625 18.914062 11.125 18.898438 C 10.808594 18.582031 10.710938 18.230469 10.847656 17.902344 C 11.003906 17.523438 11.460938 17.246094 11.9375 17.246094 C 11.984375 17.246094 12.019531 17.285156 12.019531 17.332031 C 12.019531 17.375 11.984375 17.414062 11.9375 17.414062 C 11.527344 17.414062 11.132812 17.644531 11 17.964844 C 10.890625 18.230469 10.972656 18.511719 11.242188 18.78125 C 11.273438 18.8125 11.273438 18.867188 11.242188 18.898438 C 11.226562 18.914062 11.203125 18.921875 11.183594 18.921875 Z M 11.183594 18.921875 "/>
<path style=" stroke:none;fill-rule:nonzero;fill:rgb(27.839661%,16.859436%,16.079712%);fill-opacity:1;" d="M 14.542969 18.921875 C 14.523438 18.921875 14.503906 18.914062 14.488281 18.898438 C 14.453125 18.867188 14.453125 18.816406 14.484375 18.78125 C 14.742188 18.511719 14.824219 18.214844 14.710938 17.949219 C 14.578125 17.636719 14.203125 17.414062 13.824219 17.414062 C 13.777344 17.414062 13.742188 17.375 13.742188 17.332031 C 13.742188 17.285156 13.777344 17.246094 13.824219 17.246094 C 14.265625 17.246094 14.703125 17.515625 14.863281 17.882812 C 14.945312 18.074219 15.019531 18.460938 14.605469 18.894531 C 14.589844 18.914062 14.566406 18.921875 14.542969 18.921875 Z M 14.542969 18.921875 "/>
<path style=" stroke:none;fill-rule:nonzero;fill:rgb(27.839661%,16.859436%,16.079712%);fill-opacity:1;" d="M 15.617188 24.199219 C 15.601562 24.199219 15.585938 24.195312 15.570312 24.183594 C 15.53125 24.160156 15.523438 24.109375 15.550781 24.070312 C 15.675781 23.890625 15.808594 23.703125 15.949219 23.507812 C 16.25 23.082031 16.5625 22.640625 16.871094 22.15625 C 16.894531 22.121094 16.945312 22.109375 16.984375 22.132812 C 17.023438 22.15625 17.035156 22.207031 17.011719 22.246094 C 16.703125 22.734375 16.386719 23.175781 16.082031 23.601562 C 15.945312 23.796875 15.808594 23.984375 15.683594 24.164062 C 15.667969 24.1875 15.644531 24.199219 15.617188 24.199219 Z M 15.617188 24.199219 "/>
<path style=" stroke:none;fill-rule:nonzero;fill:rgb(27.839661%,16.859436%,16.079712%);fill-opacity:1;" d="M 10.175781 24.179688 C 10.148438 24.179688 10.125 24.167969 10.109375 24.144531 C 9.980469 23.964844 9.839844 23.78125 9.699219 23.589844 C 9.378906 23.167969 9.054688 22.730469 8.730469 22.246094 C 8.703125 22.207031 8.714844 22.15625 8.753906 22.132812 C 8.789062 22.105469 8.839844 22.117188 8.867188 22.15625 C 9.1875 22.636719 9.515625 23.070312 9.828125 23.492188 C 9.972656 23.683594 10.113281 23.867188 10.242188 24.046875 C 10.269531 24.082031 10.261719 24.136719 10.222656 24.160156 C 10.210938 24.171875 10.191406 24.179688 10.175781 24.179688 Z M 10.175781 24.179688 "/>
<g clip-path="url(#clip6)" clip-rule="nonzero">
<path style="fill:none;stroke-width:0.499999;stroke-linecap:butt;stroke-linejoin:miter;stroke:rgb(100%,87.059021%,34.899902%);stroke-opacity:1;stroke-miterlimit:4;" d="M 5.265631 6.458912 C 4.656256 6.458912 4.177089 6.708912 3.833339 7.208913 C 3.489589 7.708913 3.317714 8.401621 3.317714 9.281829 C 3.317714 11.109955 4.015631 12.026621 5.406256 12.026621 C 5.828131 12.026621 6.239589 11.96933 6.630214 11.849538 C 7.026048 11.734955 7.421881 11.59433 7.822923 11.427663 L 7.822923 13.604746 C 7.031256 13.953705 6.130214 14.130788 5.130214 14.130788 C 3.692714 14.130788 2.593756 13.714121 1.828131 12.880788 C 1.057297 12.047455 0.677089 10.84433 0.677089 9.266204 C 0.677089 8.281829 0.864589 7.417246 1.234381 6.672454 C 1.604172 5.922454 2.140631 5.349537 2.833339 4.948496 C 3.531256 4.547454 4.348964 4.349537 5.291673 4.349537 C 6.317714 4.349537 7.302089 4.573496 8.239589 5.016204 L 7.453131 7.042246 C 7.098964 6.875579 6.750006 6.740162 6.395839 6.625579 C 6.046881 6.510996 5.666673 6.458912 5.265631 6.458912 Z M 9.67709 14.00058 L 9.67709 4.484954 L 12.250007 4.484954 L 12.250007 11.922455 L 15.911465 11.922455 L 15.911465 14.00058 Z M 26.338549 9.229746 C 26.338549 10.828705 25.947924 12.047455 25.161466 12.880788 C 24.375008 13.714121 23.223966 14.130788 21.713549 14.130788 C 20.218757 14.130788 19.072924 13.708913 18.276049 12.87558 C 17.479174 12.037038 17.08334 10.818288 17.08334 9.214121 C 17.08334 7.630788 17.479174 6.422454 18.27084 5.589121 C 19.062507 4.750579 20.213549 4.333912 21.723966 4.333912 C 23.239591 4.333912 24.385424 4.750579 25.166674 5.578704 C 25.947924 6.406829 26.338549 7.625579 26.338549 9.229746 Z M 19.791674 9.229746 C 19.791674 11.068288 20.432299 11.990163 21.713549 11.990163 C 22.359382 11.990163 22.843757 11.766205 23.161466 11.318288 C 23.473966 10.870371 23.630216 10.172454 23.630216 9.229746 C 23.630216 8.276621 23.473966 7.578704 23.151049 7.125579 C 22.833341 6.672454 22.359382 6.443287 21.723966 6.443287 C 20.437507 6.443287 19.791674 7.370371 19.791674 9.229746 Z M 36.145842 4.484954 L 36.145842 10.214121 C 36.145842 11.458913 35.791675 12.422455 35.08855 13.104746 C 34.385425 13.787038 33.364592 14.130788 32.036467 14.130788 C 30.739592 14.130788 29.7448 13.797455 29.046883 13.135996 C 28.354175 12.46933 28.005216 11.516205 28.005216 10.271413 L 28.005216 4.484954 L 30.58855 4.484954 L 30.58855 10.068288 C 30.58855 10.740163 30.71355 11.229746 30.96355 11.53183 C 31.218758 11.839121 31.58855 11.990163 32.078133 11.990163 C 32.604175 11.990163 32.984383 11.839121 33.218758 11.537038 C 33.458342 11.234955 33.572925 10.740163 33.572925 10.057871 L 33.572925 4.484954 Z M 46.21876 9.042246 C 46.21876 10.630788 45.78126 11.849538 44.906259 12.708913 C 44.036468 13.568288 42.807301 14.00058 41.223967 14.00058 L 38.140634 14.00058 L 38.140634 4.484954 L 41.437509 4.484954 C 42.963551 4.484954 44.140634 4.875579 44.973968 5.656829 C 45.807301 6.438079 46.21876 7.563079 46.21876 9.042246 Z M 43.552093 9.130788 C 43.552093 8.260996 43.380218 7.615163 43.036468 7.193288 C 42.687509 6.771412 42.166676 6.557871 41.463551 6.557871 L 40.713551 6.557871 L 40.713551 11.891205 L 41.286467 11.891205 C 42.067718 11.891205 42.640634 11.662038 43.005218 11.208913 C 43.369801 10.755788 43.552093 10.063079 43.552093 9.130788 Z M 43.552093 9.130788 " transform="matrix(0.75,0,0,0.75,59.249996,20.355035)"/>
</g>
<g clip-path="url(#clip7)" clip-rule="nonzero">
<path style=" stroke:none;fill-rule:nonzero;fill:rgb(47.059631%,62.748718%,81.17981%);fill-opacity:1;" d="M 94.570312 9.886719 C 94.570312 10.070312 94.503906 10.226562 94.375 10.355469 C 94.246094 10.484375 94.089844 10.546875 93.910156 10.546875 C 93.726562 10.546875 93.570312 10.484375 93.441406 10.355469 C 93.3125 10.226562 93.25 10.070312 93.25 9.886719 C 93.25 9.707031 93.3125 9.550781 93.441406 9.421875 C 93.570312 9.292969 93.726562 9.226562 93.910156 9.226562 C 94.089844 9.226562 94.246094 9.292969 94.375 9.421875 C 94.503906 9.550781 94.570312 9.707031 94.570312 9.886719 Z M 94.570312 9.886719 "/>
</g>
<path style=" stroke:none;fill-rule:nonzero;fill:rgb(94.509888%,73.728943%,9.799194%);fill-opacity:1;" d="M 115.375 4.605469 C 115.375 4.695312 115.34375 4.773438 115.277344 4.835938 C 115.214844 4.902344 115.136719 4.933594 115.046875 4.933594 C 114.953125 4.933594 114.875 4.902344 114.8125 4.835938 C 114.746094 4.773438 114.714844 4.695312 114.714844 4.605469 C 114.714844 4.511719 114.746094 4.433594 114.8125 4.371094 C 114.875 4.304688 114.953125 4.273438 115.046875 4.273438 C 115.136719 4.273438 115.214844 4.304688 115.277344 4.371094 C 115.34375 4.433594 115.375 4.511719 115.375 4.605469 Z M 115.375 4.605469 "/>
<g clip-path="url(#clip8)" clip-rule="nonzero">
<path style=" stroke:none;fill-rule:nonzero;fill:rgb(80.778503%,88.238525%,95.689392%);fill-opacity:1;" d="M 118.347656 16.824219 C 118.347656 17.625 118.269531 18.421875 118.113281 19.207031 C 117.957031 19.996094 117.726562 20.757812 117.417969 21.5 C 117.109375 22.242188 116.734375 22.945312 116.289062 23.613281 C 115.84375 24.28125 115.335938 24.898438 114.769531 25.464844 C 114.203125 26.03125 113.585938 26.539062 112.917969 26.984375 C 112.25 27.429688 111.546875 27.804688 110.804688 28.113281 C 110.0625 28.421875 109.300781 28.652344 108.511719 28.808594 C 107.726562 28.964844 106.929688 29.042969 106.128906 29.042969 C 105.324219 29.042969 104.53125 28.964844 103.746094 28.808594 C 102.957031 28.652344 102.195312 28.421875 101.453125 28.113281 C 100.710938 27.804688 100.007812 27.429688 99.339844 26.984375 C 98.671875 26.539062 98.054688 26.03125 97.488281 25.464844 C 96.921875 24.898438 96.414062 24.28125 95.96875 23.613281 C 95.523438 22.945312 95.144531 22.242188 94.839844 21.5 C 94.53125 20.757812 94.300781 19.996094 94.144531 19.207031 C 93.988281 18.421875 93.910156 17.625 93.910156 16.824219 C 93.910156 16.019531 93.988281 15.226562 94.144531 14.441406 C 94.300781 13.652344 94.53125 12.886719 94.839844 12.148438 C 95.144531 11.40625 95.523438 10.703125 95.96875 10.035156 C 96.414062 9.367188 96.921875 8.75 97.488281 8.183594 C 98.054688 7.617188 98.671875 7.109375 99.339844 6.664062 C 100.007812 6.21875 100.710938 5.839844 101.453125 5.535156 C 102.195312 5.226562 102.957031 4.996094 103.746094 4.839844 C 104.53125 4.683594 105.324219 4.605469 106.128906 4.605469 C 106.929688 4.605469 107.726562 4.683594 108.511719 4.839844 C 109.300781 4.996094 110.0625 5.226562 110.804688 5.535156 C 111.546875 5.839844 112.25 6.21875 112.917969 6.664062 C 113.585938 7.109375 114.203125 7.617188 114.769531 8.183594 C 115.335938 8.75 115.84375 9.367188 116.289062 10.035156 C 116.734375 10.703125 117.109375 11.40625 117.417969 12.148438 C 117.726562 12.886719 117.957031 13.652344 118.113281 14.441406 C 118.269531 15.226562 118.347656 16.019531 118.347656 16.824219 Z M 118.347656 16.824219 "/>
</g>
<g clip-path="url(#clip9)" clip-rule="nonzero">
<path style=" stroke:none;fill-rule:nonzero;fill:rgb(94.509888%,73.728943%,9.799194%);fill-opacity:1;" d="M 118.347656 5.265625 C 118.347656 5.441406 118.316406 5.609375 118.246094 5.769531 C 118.179688 5.933594 118.085938 6.074219 117.960938 6.199219 C 117.835938 6.324219 117.695312 6.417969 117.53125 6.484375 C 117.371094 6.550781 117.203125 6.585938 117.027344 6.585938 C 116.851562 6.585938 116.683594 6.550781 116.519531 6.484375 C 116.359375 6.417969 116.214844 6.324219 116.09375 6.199219 C 115.96875 6.074219 115.875 5.933594 115.804688 5.769531 C 115.738281 5.609375 115.707031 5.441406 115.707031 5.265625 C 115.707031 5.089844 115.738281 4.921875 115.804688 4.757812 C 115.875 4.597656 115.96875 4.453125 116.09375 4.332031 C 116.214844 4.207031 116.359375 4.109375 116.519531 4.042969 C 116.683594 3.976562 116.851562 3.945312 117.027344 3.945312 C 117.203125 3.945312 117.371094 3.976562 117.53125 4.042969 C 117.695312 4.109375 117.835938 4.207031 117.960938 4.332031 C 118.085938 4.453125 118.179688 4.597656 118.246094 4.757812 C 118.316406 4.921875 118.347656 5.089844 118.347656 5.265625 Z M 118.347656 5.265625 "/>
</g>
<g clip-path="url(#clip10)" clip-rule="nonzero">
<path style=" stroke:none;fill-rule:nonzero;fill:rgb(47.059631%,62.748718%,81.17981%);fill-opacity:1;" d="M 119.007812 8.238281 C 119.007812 8.417969 118.945312 8.574219 118.816406 8.703125 C 118.6875 8.832031 118.53125 8.898438 118.347656 8.898438 C 118.164062 8.898438 118.011719 8.832031 117.882812 8.703125 C 117.753906 8.574219 117.6875 8.417969 117.6875 8.238281 C 117.6875 8.054688 117.753906 7.898438 117.882812 7.769531 C 118.011719 7.640625 118.164062 7.578125 118.347656 7.578125 C 118.53125 7.578125 118.6875 7.640625 118.816406 7.769531 C 118.945312 7.898438 119.007812 8.054688 119.007812 8.238281 Z M 119.007812 8.238281 "/>
</g>
<path style=" stroke:none;fill-rule:nonzero;fill:rgb(98.429871%,80.389404%,34.899902%);fill-opacity:1;" d="M 117.027344 25.410156 C 117.027344 25.59375 116.960938 25.75 116.832031 25.878906 C 116.703125 26.007812 116.550781 26.070312 116.367188 26.070312 C 116.183594 26.070312 116.027344 26.007812 115.898438 25.878906 C 115.769531 25.75 115.707031 25.59375 115.707031 25.410156 C 115.707031 25.226562 115.769531 25.074219 115.898438 24.945312 C 116.027344 24.8125 116.183594 24.75 116.367188 24.75 C 116.550781 24.75 116.703125 24.8125 116.832031 24.945312 C 116.960938 25.074219 117.027344 25.226562 117.027344 25.410156 Z M 117.027344 25.410156 "/>
<g clip-path="url(#clip11)" clip-rule="nonzero">
<path style=" stroke:none;fill-rule:nonzero;fill:rgb(98.429871%,80.389404%,34.899902%);fill-opacity:1;" d="M 95.890625 21.117188 C 95.890625 21.292969 95.855469 21.460938 95.789062 21.621094 C 95.722656 21.785156 95.628906 21.925781 95.503906 22.050781 C 95.378906 22.175781 95.238281 22.269531 95.074219 22.335938 C 94.914062 22.40625 94.746094 22.4375 94.570312 22.4375 C 94.394531 22.4375 94.226562 22.40625 94.0625 22.335938 C 93.902344 22.269531 93.757812 22.175781 93.636719 22.050781 C 93.511719 21.925781 93.414062 21.785156 93.347656 21.621094 C 93.28125 21.460938 93.25 21.292969 93.25 21.117188 C 93.25 20.941406 93.28125 20.773438 93.347656 20.613281 C 93.414062 20.449219 93.511719 20.308594 93.636719 20.183594 C 93.757812 20.058594 93.902344 19.964844 94.0625 19.898438 C 94.226562 19.828125 94.394531 19.796875 94.570312 19.796875 C 94.746094 19.796875 94.914062 19.828125 95.074219 19.898438 C 95.238281 19.964844 95.378906 20.058594 95.503906 20.183594 C 95.628906 20.308594 95.722656 20.449219 95.789062 20.613281 C 95.855469 20.773438 95.890625 20.941406 95.890625 21.117188 Z M 95.890625 21.117188 "/>
</g>
<g clip-path="url(#clip12)" clip-rule="nonzero">
<path style=" stroke:none;fill-rule:nonzero;fill:rgb(47.059631%,62.748718%,81.17981%);fill-opacity:1;" d="M 98.53125 29.042969 C 98.53125 29.226562 98.46875 29.382812 98.339844 29.511719 C 98.210938 29.640625 98.054688 29.703125 97.871094 29.703125 C 97.6875 29.703125 97.535156 29.640625 97.40625 29.511719 C 97.277344 29.382812 97.210938 29.226562 97.210938 29.042969 C 97.210938 28.859375 97.277344 28.707031 97.40625 28.578125 C 97.535156 28.449219 97.6875 28.382812 97.871094 28.382812 C 98.054688 28.382812 98.210938 28.449219 98.339844 28.578125 C 98.46875 28.707031 98.53125 28.859375 98.53125 29.042969 Z M 98.53125 29.042969 "/>
</g>
<path style=" stroke:none;fill-rule:nonzero;fill:rgb(100%,100%,100%);fill-opacity:1;" d="M 97.210938 14.015625 C 97.210938 14.246094 97.128906 14.4375 96.96875 14.601562 C 96.808594 14.761719 96.613281 14.84375 96.386719 14.84375 C 96.15625 14.84375 95.964844 14.761719 95.800781 14.601562 C 95.640625 14.4375 95.558594 14.246094 95.558594 14.015625 C 95.558594 13.789062 95.640625 13.59375 95.800781 13.433594 C 95.964844 13.269531 96.15625 13.191406 96.386719 13.191406 C 96.613281 13.191406 96.808594 13.269531 96.96875 13.433594 C 97.128906 13.59375 97.210938 13.789062 97.210938 14.015625 Z M 97.210938 14.015625 "/>
<path style=" stroke:none;fill-rule:nonzero;fill:rgb(94.509888%,73.728943%,9.799194%);fill-opacity:1;" d="M 96.882812 22.4375 C 96.882812 22.527344 96.847656 22.605469 96.785156 22.671875 C 96.71875 22.734375 96.640625 22.769531 96.550781 22.769531 C 96.460938 22.769531 96.382812 22.734375 96.316406 22.671875 C 96.253906 22.605469 96.21875 22.527344 96.21875 22.4375 C 96.21875 22.347656 96.253906 22.269531 96.316406 22.203125 C 96.382812 22.140625 96.460938 22.109375 96.550781 22.109375 C 96.640625 22.109375 96.71875 22.140625 96.785156 22.203125 C 96.847656 22.269531 96.882812 22.347656 96.882812 22.4375 Z M 96.882812 22.4375 "/>
<path style=" stroke:none;fill-rule:nonzero;fill:rgb(100%,100%,100%);fill-opacity:1;" d="M 116.367188 11.539062 C 116.367188 11.628906 116.335938 11.707031 116.269531 11.773438 C 116.207031 11.835938 116.128906 11.871094 116.035156 11.871094 C 115.945312 11.871094 115.867188 11.835938 115.800781 11.773438 C 115.738281 11.707031 115.707031 11.628906 115.707031 11.539062 C 115.707031 11.449219 115.738281 11.371094 115.800781 11.304688 C 115.867188 11.242188 115.945312 11.210938 116.035156 11.210938 C 116.128906 11.210938 116.207031 11.242188 116.269531 11.304688 C 116.335938 11.371094 116.367188 11.449219 116.367188 11.539062 Z M 116.367188 11.539062 "/>
<path style=" stroke:none;fill-rule:nonzero;fill:rgb(100%,100%,100%);fill-opacity:1;" d="M 106.128906 26.34375 C 106.097656 26.339844 104.609375 26.316406 103.511719 25.230469 C 102.34375 24.074219 100.765625 22.125 100.75 22.105469 C 100.734375 22.085938 99.210938 20.167969 99.210938 17.535156 L 99.210938 12.425781 C 99.195312 12.277344 98.875 9.441406 101.425781 8.71875 C 102.75 8.34375 104.421875 8.136719 106.128906 8.136719 C 107.835938 8.136719 109.507812 8.34375 110.832031 8.71875 C 113.390625 9.441406 113.0625 12.277344 113.046875 12.398438 L 113.046875 17.535156 C 113.046875 20.167969 111.523438 22.085938 111.507812 22.105469 C 111.492188 22.125 109.914062 24.074219 108.746094 25.230469 C 107.644531 26.316406 106.160156 26.339844 106.128906 26.34375 Z M 106.128906 26.34375 "/>
<path style=" stroke:none;fill-rule:nonzero;fill:rgb(27.839661%,16.859436%,16.079712%);fill-opacity:1;" d="M 106.128906 8.367188 C 107.816406 8.367188 109.464844 8.570312 110.769531 8.941406 C 113.125 9.605469 112.832031 12.257812 112.816406 12.367188 L 112.816406 17.535156 C 112.816406 20.078125 111.34375 21.941406 111.328125 21.960938 C 111.3125 21.980469 109.742188 23.917969 108.582031 25.066406 C 107.546875 26.089844 106.140625 26.109375 106.128906 26.109375 C 106.117188 26.109375 104.707031 26.089844 103.675781 25.066406 C 102.515625 23.917969 100.945312 21.980469 100.929688 21.960938 C 100.914062 21.941406 99.441406 20.078125 99.441406 17.535156 L 99.441406 12.398438 L 99.4375 12.367188 C 99.425781 12.253906 99.117188 9.609375 101.488281 8.941406 C 102.792969 8.570312 104.441406 8.367188 106.128906 8.367188 M 106.128906 7.90625 C 104.441406 7.90625 102.753906 8.101562 101.363281 8.496094 C 98.582031 9.28125 98.980469 12.425781 98.980469 12.425781 C 98.980469 12.425781 98.980469 14.785156 98.980469 17.535156 C 98.980469 20.285156 100.570312 22.25 100.570312 22.25 C 100.570312 22.25 102.15625 24.214844 103.347656 25.394531 C 104.539062 26.574219 106.128906 26.574219 106.128906 26.574219 C 106.128906 26.574219 107.71875 26.574219 108.90625 25.394531 C 110.097656 24.214844 111.6875 22.25 111.6875 22.25 C 111.6875 22.25 113.277344 20.285156 113.277344 17.535156 C 113.277344 14.785156 113.277344 12.425781 113.277344 12.425781 C 113.277344 12.425781 113.671875 9.28125 110.894531 8.496094 C 109.503906 8.101562 107.816406 7.90625 106.128906 7.90625 Z M 106.128906 7.90625 "/>
<path style=" stroke:none;fill-rule:nonzero;fill:rgb(27.839661%,16.859436%,16.079712%);fill-opacity:1;" d="M 106.085938 18.734375 C 105.808594 18.734375 105.582031 18.644531 105.417969 18.464844 C 105.164062 18.183594 105.113281 17.75 105.152344 17.460938 C 105.152344 17.453125 105.207031 17.175781 105.292969 16.5625 C 105.300781 16.519531 105.339844 16.488281 105.386719 16.492188 C 105.429688 16.5 105.460938 16.542969 105.457031 16.585938 C 105.371094 17.203125 105.316406 17.476562 105.3125 17.488281 C 105.289062 17.683594 105.308594 18.097656 105.539062 18.351562 C 105.679688 18.503906 105.875 18.574219 106.125 18.566406 C 106.164062 18.5625 106.207031 18.601562 106.210938 18.648438 C 106.210938 18.691406 106.175781 18.730469 106.132812 18.734375 C 106.117188 18.734375 106.101562 18.734375 106.085938 18.734375 Z M 106.085938 18.734375 "/>
<path style=" stroke:none;fill-rule:nonzero;fill:rgb(27.839661%,16.859436%,16.079712%);fill-opacity:1;" d="M 105.4375 16.1875 C 105.433594 16.1875 105.429688 16.1875 105.425781 16.1875 C 105.382812 16.179688 105.351562 16.140625 105.355469 16.09375 C 105.394531 15.800781 105.4375 15.457031 105.480469 15.058594 C 105.484375 15.011719 105.527344 14.980469 105.570312 14.984375 C 105.617188 14.988281 105.648438 15.03125 105.644531 15.074219 C 105.601562 15.476562 105.558594 15.820312 105.519531 16.113281 C 105.515625 16.15625 105.480469 16.1875 105.4375 16.1875 Z M 105.4375 16.1875 "/>
<path style=" stroke:none;fill-rule:nonzero;fill:rgb(27.839661%,16.859436%,16.079712%);fill-opacity:1;" d="M 105.566406 14.535156 C 105.527344 14.535156 105.492188 14.503906 105.484375 14.460938 C 105.449219 14.070312 105.324219 13.699219 105.113281 13.363281 C 105.089844 13.324219 105.101562 13.273438 105.140625 13.25 C 105.179688 13.226562 105.230469 13.238281 105.253906 13.277344 C 105.476562 13.632812 105.609375 14.027344 105.652344 14.445312 C 105.65625 14.492188 105.621094 14.53125 105.574219 14.535156 C 105.574219 14.535156 105.570312 14.535156 105.566406 14.535156 Z M 105.566406 14.535156 "/>
<path style=" stroke:none;fill-rule:nonzero;fill:rgb(27.839661%,16.859436%,16.079712%);fill-opacity:1;" d="M 103.574219 17.507812 C 103.546875 17.507812 103.523438 17.496094 103.507812 17.476562 C 103.480469 17.441406 103.484375 17.390625 103.519531 17.359375 C 103.894531 17.0625 104.132812 16.804688 104.132812 16.804688 C 104.164062 16.769531 104.214844 16.765625 104.25 16.796875 C 104.285156 16.828125 104.285156 16.878906 104.253906 16.914062 C 104.246094 16.925781 104.007812 17.183594 103.625 17.488281 C 103.609375 17.5 103.589844 17.507812 103.574219 17.507812 Z M 103.574219 17.507812 "/>
<path style=" stroke:none;fill-rule:nonzero;fill:rgb(27.839661%,16.859436%,16.079712%);fill-opacity:1;" d="M 101.335938 18.460938 C 100.765625 18.460938 100.179688 18.238281 99.652344 17.621094 C 99.621094 17.585938 99.625 17.53125 99.660156 17.503906 C 99.695312 17.472656 99.746094 17.476562 99.777344 17.511719 C 100.816406 18.726562 102.113281 18.296875 103.019531 17.71875 C 103.058594 17.695312 103.109375 17.707031 103.132812 17.746094 C 103.15625 17.785156 103.144531 17.835938 103.105469 17.859375 C 102.601562 18.183594 101.976562 18.460938 101.335938 18.460938 Z M 101.335938 18.460938 "/>
<path style=" stroke:none;fill-rule:nonzero;fill:rgb(27.839661%,16.859436%,16.079712%);fill-opacity:1;" d="M 110.875 18.460938 C 110.589844 18.460938 110.285156 18.402344 109.96875 18.289062 C 109.925781 18.277344 109.902344 18.230469 109.917969 18.1875 C 109.933594 18.144531 109.980469 18.121094 110.023438 18.136719 C 110.980469 18.476562 111.789062 18.265625 112.433594 17.511719 C 112.460938 17.476562 112.515625 17.472656 112.546875 17.503906 C 112.582031 17.53125 112.585938 17.585938 112.558594 17.621094 C 112.078125 18.179688 111.515625 18.460938 110.875 18.460938 Z M 110.875 18.460938 "/>
<path style=" stroke:none;fill-rule:nonzero;fill:rgb(27.839661%,16.859436%,16.079712%);fill-opacity:1;" d="M 109.429688 18.039062 C 109.414062 18.039062 109.402344 18.035156 109.390625 18.027344 C 108.566406 17.578125 107.976562 16.941406 107.953125 16.914062 C 107.921875 16.878906 107.925781 16.828125 107.960938 16.796875 C 107.992188 16.765625 108.042969 16.769531 108.074219 16.804688 C 108.082031 16.808594 108.671875 17.449219 109.46875 17.882812 C 109.507812 17.90625 109.523438 17.957031 109.503906 17.996094 C 109.488281 18.023438 109.457031 18.039062 109.429688 18.039062 Z M 109.429688 18.039062 "/>
<path style=" stroke:none;fill-rule:nonzero;fill:rgb(27.839661%,16.859436%,16.079712%);fill-opacity:1;" d="M 107.589844 21.269531 L 104.617188 21.269531 C 104.527344 21.269531 104.453125 21.195312 104.453125 21.101562 C 104.453125 21.011719 104.527344 20.9375 104.617188 20.9375 L 107.589844 20.9375 C 107.679688 20.9375 107.753906 21.011719 107.753906 21.101562 C 107.753906 21.195312 107.679688 21.269531 107.589844 21.269531 Z M 107.589844 21.269531 "/>
<path style=" stroke:none;fill-rule:nonzero;fill:rgb(27.839661%,16.859436%,16.079712%);fill-opacity:1;" d="M 102.832031 21.652344 C 101.945312 21.371094 101.390625 20.507812 100.808594 19.597656 L 100.773438 19.542969 C 100.75 19.503906 100.761719 19.453125 100.800781 19.429688 C 100.835938 19.40625 100.890625 19.417969 100.914062 19.457031 L 100.945312 19.507812 C 101.539062 20.433594 102.050781 21.230469 102.882812 21.496094 Z M 102.832031 21.652344 "/>
<path style=" stroke:none;fill-rule:nonzero;fill:rgb(27.839661%,16.859436%,16.079712%);fill-opacity:1;" d="M 106.128906 22.082031 C 106.113281 22.082031 104.703125 22.070312 103.496094 21.820312 C 103.449219 21.8125 103.421875 21.769531 103.429688 21.726562 C 103.441406 21.679688 103.480469 21.652344 103.527344 21.660156 C 104.71875 21.902344 106.113281 21.914062 106.128906 21.917969 C 106.175781 21.917969 106.210938 21.953125 106.210938 22 C 106.210938 22.042969 106.171875 22.082031 106.128906 22.082031 Z M 106.128906 22.082031 "/>
<path style=" stroke:none;fill-rule:nonzero;fill:rgb(27.839661%,16.859436%,16.079712%);fill-opacity:1;" d="M 108.0625 21.921875 C 108.019531 21.921875 107.984375 21.890625 107.980469 21.847656 C 107.972656 21.804688 108.003906 21.761719 108.050781 21.753906 C 108.535156 21.6875 108.953125 21.597656 109.292969 21.496094 C 110.160156 21.230469 110.691406 20.429688 111.308594 19.503906 L 111.34375 19.453125 C 111.371094 19.414062 111.421875 19.40625 111.457031 19.429688 C 111.496094 19.457031 111.507812 19.507812 111.480469 19.546875 L 111.445312 19.597656 C 110.839844 20.507812 110.265625 21.371094 109.34375 21.652344 C 108.996094 21.761719 108.566406 21.847656 108.074219 21.917969 C 108.070312 21.917969 108.066406 21.921875 108.0625 21.921875 Z M 108.0625 21.921875 "/>
<path style=" stroke:none;fill-rule:nonzero;fill:rgb(27.839661%,16.859436%,16.079712%);fill-opacity:1;" d="M 106.128906 22.082031 C 106.082031 22.082031 106.046875 22.042969 106.046875 22 C 106.046875 21.953125 106.082031 21.917969 106.128906 21.917969 C 106.132812 21.917969 106.746094 21.910156 107.488281 21.832031 C 107.53125 21.824219 107.574219 21.859375 107.578125 21.902344 C 107.582031 21.949219 107.550781 21.988281 107.503906 21.996094 C 106.757812 22.074219 106.136719 22.082031 106.128906 22.082031 Z M 106.128906 22.082031 "/>
<path style=" stroke:none;fill-rule:nonzero;fill:rgb(27.839661%,16.859436%,16.079712%);fill-opacity:1;" d="M 104.429688 14.691406 C 104.429688 14.691406 104.054688 13.933594 102.921875 13.933594 C 101.789062 13.933594 101.414062 14.691406 101.414062 14.691406 C 101.414062 14.691406 102.542969 15.445312 104.429688 14.691406 Z M 104.429688 14.691406 "/>
<path style=" stroke:none;fill-rule:nonzero;fill:rgb(27.839661%,16.859436%,16.079712%);fill-opacity:1;" d="M 102.804688 15.191406 C 101.882812 15.191406 101.355469 14.847656 101.320312 14.828125 C 101.25 14.78125 101.226562 14.691406 101.265625 14.617188 C 101.28125 14.582031 101.703125 13.769531 102.921875 13.769531 C 104.140625 13.769531 104.5625 14.582031 104.578125 14.617188 C 104.597656 14.65625 104.601562 14.703125 104.585938 14.746094 C 104.570312 14.789062 104.535156 14.824219 104.492188 14.84375 C 103.839844 15.105469 103.273438 15.191406 102.804688 15.191406 Z M 101.652344 14.632812 C 101.984375 14.785156 102.867188 15.074219 104.175781 14.609375 C 104.007812 14.414062 103.628906 14.101562 102.921875 14.101562 C 102.191406 14.101562 101.808594 14.4375 101.652344 14.632812 Z M 101.652344 14.632812 "/>
<path style=" stroke:none;fill-rule:nonzero;fill:rgb(27.839661%,16.859436%,16.079712%);fill-opacity:1;" d="M 105.28125 18.792969 L 104.882812 19.390625 C 104.71875 19.636719 104.441406 19.78125 104.148438 19.78125 L 103.171875 19.78125 C 102.894531 19.78125 102.636719 19.652344 102.46875 19.429688 L 101.601562 18.273438 L 101.128906 18.367188 L 102.101562 20.089844 C 102.257812 20.367188 102.550781 20.539062 102.871094 20.539062 L 104.632812 20.539062 C 104.863281 20.539062 105.089844 20.445312 105.253906 20.28125 L 106.128906 19.40625 L 106.128906 18.839844 Z M 105.28125 18.792969 "/>
<path style=" stroke:none;fill-rule:nonzero;fill:rgb(27.839661%,16.859436%,16.079712%);fill-opacity:1;" d="M 106.128906 25.867188 C 104.242188 23.933594 106.128906 22.800781 105.183594 21.953125 L 106.128906 22.046875 Z M 106.128906 25.867188 "/>
<path style=" stroke:none;fill-rule:nonzero;fill:rgb(27.839661%,16.859436%,16.079712%);fill-opacity:1;" d="M 104.777344 12.007812 C 104.777344 12.007812 101.871094 9.839844 100.46875 12.226562 C 101.070312 11.792969 102.121094 11.195312 104.375 12.550781 C 105.027344 12.929688 105.175781 12.335938 104.777344 12.007812 Z M 104.777344 12.007812 "/>
<path style=" stroke:none;fill-rule:nonzero;fill:rgb(27.839661%,16.859436%,16.079712%);fill-opacity:1;" d="M 100.46875 15.484375 C 100.457031 15.484375 100.445312 15.480469 100.4375 15.476562 C 100.394531 15.457031 100.375 15.410156 100.394531 15.367188 C 100.402344 15.347656 100.632812 14.835938 101.539062 14.65625 C 101.582031 14.648438 101.625 14.675781 101.636719 14.71875 C 101.644531 14.765625 101.613281 14.808594 101.570312 14.816406 C 100.753906 14.980469 100.546875 15.429688 100.546875 15.433594 C 100.53125 15.464844 100.5 15.484375 100.46875 15.484375 Z M 100.46875 15.484375 "/>
<path style=" stroke:none;fill-rule:nonzero;fill:rgb(27.839661%,16.859436%,16.079712%);fill-opacity:1;" d="M 101.359375 14.777344 C 101.140625 14.777344 100.660156 14.714844 100.351562 14.214844 C 100.328125 14.175781 100.339844 14.125 100.378906 14.101562 C 100.417969 14.078125 100.46875 14.089844 100.492188 14.128906 C 100.835938 14.683594 101.421875 14.609375 101.449219 14.609375 C 101.492188 14.601562 101.535156 14.632812 101.542969 14.679688 C 101.546875 14.722656 101.515625 14.765625 101.472656 14.769531 C 101.464844 14.773438 101.421875 14.777344 101.359375 14.777344 Z M 101.359375 14.777344 "/>
<path style=" stroke:none;fill-rule:nonzero;fill:rgb(27.839661%,16.859436%,16.079712%);fill-opacity:1;" d="M 106.125 18.734375 C 106.109375 18.734375 106.09375 18.734375 106.078125 18.734375 C 106.03125 18.730469 105.996094 18.691406 106 18.648438 C 106 18.601562 106.042969 18.566406 106.085938 18.566406 C 106.332031 18.574219 106.53125 18.503906 106.667969 18.351562 C 106.902344 18.097656 106.921875 17.6875 106.894531 17.480469 C 106.894531 17.480469 106.75 16.757812 106.566406 15.074219 C 106.492188 14.417969 106.625 13.8125 106.953125 13.277344 C 106.976562 13.238281 107.03125 13.226562 107.066406 13.25 C 107.105469 13.273438 107.117188 13.324219 107.09375 13.363281 C 106.785156 13.867188 106.660156 14.4375 106.730469 15.058594 C 106.914062 16.730469 107.058594 17.449219 107.058594 17.457031 C 107.09375 17.75 107.046875 18.183594 106.792969 18.464844 C 106.628906 18.644531 106.402344 18.734375 106.125 18.734375 Z M 106.125 18.734375 "/>
<path style=" stroke:none;fill-rule:nonzero;fill:rgb(27.839661%,16.859436%,16.079712%);fill-opacity:1;" d="M 107.824219 19.003906 C 107.800781 19.003906 107.777344 19 107.753906 18.988281 C 107.671875 18.949219 107.636719 18.847656 107.675781 18.765625 C 107.71875 18.683594 107.714844 18.652344 107.714844 18.652344 C 107.714844 18.65625 107.691406 18.640625 107.613281 18.640625 C 107.53125 18.640625 107.375 18.660156 107.101562 18.730469 C 107.089844 18.734375 107.070312 18.738281 107.046875 18.742188 C 106.851562 18.820312 106.714844 18.875 106.617188 18.914062 C 106.308594 19.027344 105.953125 19.035156 105.640625 18.925781 C 105.53125 18.886719 105.378906 18.828125 105.160156 18.738281 C 105.148438 18.738281 105.132812 18.734375 105.121094 18.730469 C 104.679688 18.609375 104.5625 18.644531 104.539062 18.660156 C 104.542969 18.664062 104.546875 18.699219 104.578125 18.765625 C 104.617188 18.847656 104.585938 18.945312 104.503906 18.988281 C 104.421875 19.027344 104.320312 18.992188 104.28125 18.910156 C 104.1875 18.714844 104.1875 18.558594 104.28125 18.445312 C 104.445312 18.253906 104.808594 18.308594 105.128906 18.390625 C 105.15625 18.386719 105.183594 18.390625 105.207031 18.402344 C 105.457031 18.507812 105.632812 18.570312 105.75 18.613281 C 105.988281 18.695312 106.265625 18.691406 106.5 18.605469 C 106.609375 18.5625 106.769531 18.5 107 18.402344 C 107.027344 18.390625 107.058594 18.386719 107.085938 18.390625 C 107.441406 18.304688 107.808594 18.253906 107.972656 18.453125 C 108.066406 18.566406 108.066406 18.71875 107.972656 18.910156 C 107.945312 18.96875 107.886719 19.003906 107.824219 19.003906 Z M 107.824219 19.003906 "/>
<path style=" stroke:none;fill-rule:nonzero;fill:rgb(27.839661%,16.859436%,16.079712%);fill-opacity:1;" d="M 107.589844 21.269531 L 104.617188 21.269531 C 104.527344 21.269531 104.453125 21.195312 104.453125 21.101562 C 104.453125 21.011719 104.527344 20.9375 104.617188 20.9375 L 107.589844 20.9375 C 107.679688 20.9375 107.753906 21.011719 107.753906 21.101562 C 107.753906 21.195312 107.679688 21.269531 107.589844 21.269531 Z M 107.589844 21.269531 "/>
<path style=" stroke:none;fill-rule:nonzero;fill:rgb(27.839661%,16.859436%,16.079712%);fill-opacity:1;" d="M 107.777344 14.691406 C 107.777344 14.691406 108.15625 13.933594 109.289062 13.933594 C 110.417969 13.933594 110.796875 14.691406 110.796875 14.691406 C 110.796875 14.691406 109.664062 15.445312 107.777344 14.691406 Z M 107.777344 14.691406 "/>
<path style=" stroke:none;fill-rule:nonzero;fill:rgb(27.839661%,16.859436%,16.079712%);fill-opacity:1;" d="M 109.402344 15.191406 C 108.9375 15.191406 108.371094 15.105469 107.71875 14.84375 C 107.675781 14.824219 107.640625 14.792969 107.625 14.746094 C 107.609375 14.703125 107.609375 14.65625 107.632812 14.617188 C 107.648438 14.582031 108.066406 13.769531 109.289062 13.769531 C 110.507812 13.769531 110.925781 14.582031 110.945312 14.617188 C 110.980469 14.691406 110.957031 14.78125 110.890625 14.828125 C 110.855469 14.847656 110.324219 15.191406 109.402344 15.191406 Z M 108.035156 14.609375 C 109.332031 15.070312 110.222656 14.78125 110.558594 14.628906 C 110.398438 14.433594 110.019531 14.101562 109.289062 14.101562 C 108.582031 14.101562 108.203125 14.414062 108.035156 14.609375 Z M 108.035156 14.609375 "/>
<path style=" stroke:none;fill-rule:nonzero;fill:rgb(27.839661%,16.859436%,16.079712%);fill-opacity:1;" d="M 106.929688 18.792969 L 107.328125 19.390625 C 107.492188 19.636719 107.765625 19.78125 108.0625 19.78125 L 109.035156 19.78125 C 109.3125 19.78125 109.574219 19.652344 109.742188 19.429688 L 110.609375 18.273438 L 111.078125 18.367188 L 110.105469 20.089844 C 109.949219 20.367188 109.65625 20.539062 109.339844 20.539062 L 107.578125 20.539062 C 107.34375 20.539062 107.121094 20.445312 106.953125 20.28125 L 106.082031 19.40625 L 106.082031 18.839844 Z M 106.929688 18.792969 "/>
<path style=" stroke:none;fill-rule:nonzero;fill:rgb(27.839661%,16.859436%,16.079712%);fill-opacity:1;" d="M 106.082031 25.867188 C 107.96875 23.933594 106.082031 22.800781 107.023438 21.953125 L 106.082031 22.046875 Z M 106.082031 25.867188 "/>
<path style=" stroke:none;fill-rule:nonzero;fill:rgb(27.839661%,16.859436%,16.079712%);fill-opacity:1;" d="M 107.433594 12.007812 C 107.433594 12.007812 110.339844 9.839844 111.738281 12.226562 C 111.140625 11.792969 110.085938 11.195312 107.835938 12.550781 C 107.183594 12.929688 107.035156 12.335938 107.433594 12.007812 Z M 107.433594 12.007812 "/>
<path style=" stroke:none;fill-rule:nonzero;fill:rgb(27.839661%,16.859436%,16.079712%);fill-opacity:1;" d="M 111.738281 15.484375 C 111.707031 15.484375 111.679688 15.464844 111.664062 15.433594 C 111.660156 15.425781 111.449219 14.980469 110.640625 14.816406 C 110.59375 14.808594 110.566406 14.765625 110.574219 14.722656 C 110.582031 14.675781 110.628906 14.648438 110.671875 14.65625 C 111.578125 14.835938 111.808594 15.347656 111.816406 15.371094 C 111.832031 15.410156 111.816406 15.460938 111.773438 15.476562 C 111.761719 15.480469 111.75 15.484375 111.738281 15.484375 Z M 111.738281 15.484375 "/>
<path style=" stroke:none;fill-rule:nonzero;fill:rgb(27.839661%,16.859436%,16.079712%);fill-opacity:1;" d="M 110.851562 14.777344 C 110.785156 14.777344 110.746094 14.773438 110.738281 14.769531 C 110.691406 14.765625 110.660156 14.722656 110.667969 14.679688 C 110.675781 14.632812 110.714844 14.601562 110.761719 14.609375 C 110.785156 14.609375 111.375 14.683594 111.71875 14.128906 C 111.742188 14.089844 111.792969 14.078125 111.832031 14.101562 C 111.871094 14.125 111.882812 14.175781 111.859375 14.214844 C 111.550781 14.714844 111.070312 14.777344 110.851562 14.777344 Z M 110.851562 14.777344 "/>
<path style=" stroke:none;fill-rule:nonzero;fill:rgb(27.839661%,16.859436%,16.079712%);fill-opacity:1;" d="M 104.429688 18.921875 C 104.410156 18.921875 104.386719 18.914062 104.371094 18.898438 C 104.058594 18.582031 103.957031 18.230469 104.09375 17.902344 C 104.25 17.523438 104.710938 17.246094 105.183594 17.246094 C 105.230469 17.246094 105.269531 17.285156 105.269531 17.332031 C 105.269531 17.375 105.230469 17.414062 105.183594 17.414062 C 104.773438 17.414062 104.378906 17.644531 104.246094 17.964844 C 104.136719 18.230469 104.222656 18.511719 104.488281 18.78125 C 104.519531 18.8125 104.519531 18.867188 104.488281 18.898438 C 104.472656 18.914062 104.453125 18.921875 104.429688 18.921875 Z M 104.429688 18.921875 "/>
<path style=" stroke:none;fill-rule:nonzero;fill:rgb(27.839661%,16.859436%,16.079712%);fill-opacity:1;" d="M 107.792969 18.921875 C 107.773438 18.921875 107.75 18.914062 107.734375 18.898438 C 107.703125 18.867188 107.703125 18.816406 107.734375 18.78125 C 107.992188 18.511719 108.070312 18.214844 107.957031 17.949219 C 107.824219 17.636719 107.453125 17.414062 107.070312 17.414062 C 107.027344 17.414062 106.988281 17.375 106.988281 17.332031 C 106.988281 17.285156 107.027344 17.246094 107.070312 17.246094 C 107.515625 17.246094 107.953125 17.515625 108.109375 17.882812 C 108.191406 18.074219 108.265625 18.460938 107.851562 18.894531 C 107.835938 18.914062 107.8125 18.921875 107.792969 18.921875 Z M 107.792969 18.921875 "/>
<path style=" stroke:none;fill-rule:nonzero;fill:rgb(27.839661%,16.859436%,16.079712%);fill-opacity:1;" d="M 108.867188 24.199219 C 108.847656 24.199219 108.832031 24.195312 108.816406 24.183594 C 108.78125 24.160156 108.769531 24.109375 108.796875 24.070312 C 108.921875 23.890625 109.058594 23.703125 109.195312 23.507812 C 109.5 23.082031 109.8125 22.640625 110.121094 22.15625 C 110.144531 22.121094 110.195312 22.109375 110.234375 22.132812 C 110.273438 22.15625 110.285156 22.207031 110.257812 22.246094 C 109.949219 22.734375 109.632812 23.175781 109.328125 23.601562 C 109.191406 23.796875 109.058594 23.984375 108.933594 24.164062 C 108.917969 24.1875 108.890625 24.199219 108.867188 24.199219 Z M 108.867188 24.199219 "/>
<path style=" stroke:none;fill-rule:nonzero;fill:rgb(27.839661%,16.859436%,16.079712%);fill-opacity:1;" d="M 103.425781 24.179688 C 103.398438 24.179688 103.375 24.167969 103.355469 24.144531 C 103.226562 23.964844 103.089844 23.78125 102.945312 23.589844 C 102.628906 23.167969 102.300781 22.730469 101.976562 22.246094 C 101.953125 22.207031 101.960938 22.15625 102 22.132812 C 102.039062 22.105469 102.089844 22.117188 102.113281 22.15625 C 102.4375 22.636719 102.761719 23.070312 103.078125 23.492188 C 103.222656 23.683594 103.359375 23.867188 103.492188 24.046875 C 103.515625 24.082031 103.507812 24.136719 103.472656 24.160156 C 103.457031 24.171875 103.441406 24.179688 103.425781 24.179688 Z M 103.425781 24.179688 "/>
<path style="fill:none;stroke-width:1;stroke-linecap:round;stroke-linejoin:miter;stroke:rgb(0%,76.078796%,79.60968%);stroke-opacity:1;stroke-miterlimit:4;" d="M 0.499567 0.0000544529 L 16.277124 0.0000544529 " transform="matrix(-1.517187,-0.000000000000000186,0.000000000000000184,-1.5,58.191531,27.871175)"/>
<path style="fill:none;stroke-width:1;stroke-linecap:butt;stroke-linejoin:round;stroke:rgb(0%,76.078796%,79.60968%);stroke-opacity:1;stroke-miterlimit:4;" d="M -0.498861 0.0000544529 L -1.999892 -1.499946 L -3.500923 0.0000544529 L -1.999892 1.500055 Z M -0.498861 0.0000544529 " transform="matrix(-1.517187,-0.000000000000000186,0.000000000000000184,-1.5,28.18454,27.871175)"/>
</g>
</svg>
